{
  "version": "1.1.6",
  "modules": [
    {
      "id": 1,
      "plugin": "Core",
      "version": "1.1.6",
      "model": "AudioInterface",
      "params": [],
      "data": {
        "audio": {
          "driver": 5,
          "deviceName": "4c: ",
          "offset": 0,
          "maxChannels": 8,
          "sampleRate": 48000,
          "blockSize": 256
        }
      },
      "pos": [
        86,
        0
      ]
    },
    {
      "id": 2,
      "plugin": "Fundamental",
      "version": "1.4.0",
      "model": "VCMixer",
      "params": [
        {
          "id": 0,
          "value": 0.0
        },
        {
          "id": 1,
          "value": 0.801859319
        },
        {
          "id": 2,
          "value": 0.509116828
        },
        {
          "id": 3,
          "value": 0.742462397
        },
        {
          "id": 4,
          "value": 0.980049968
        }
      ],
      "leftModuleId": 56,
      "pos": [
        72,
        0
      ]
    },
    {
      "id": 4,
      "plugin": "Fundamental",
      "version": "1.4.0",
      "model": "VCF",
      "params": [
        {
          "id": 0,
          "value": 0.687000275
        },
        {
          "id": 1,
          "value": 0.349500418
        },
        {
          "id": 2,
          "value": 0.436500192
        },
        {
          "id": 3,
          "value": 0.142000169
        },
        {
          "id": 4,
          "value": 0.441000074
        }
      ],
      "leftModuleId": 7,
      "pos": [
        32,
        0
      ]
    },
    {
      "id": 7,
      "plugin": "Fundamental",
      "version": "1.4.0",
      "model": "Scope",
      "params": [
        {
          "id": 0,
          "value": 0.0
        },
        {
          "id": 1,
          "value": 0.0
        },
        {
          "id": 2,
          "value": 0.0
        },
        {
          "id": 3,
          "value": -1.86000228
        },
        {
          "id": 4,
          "value": 13.6249952
        },
        {
          "id": 5,
          "value": 0.0
        },
        {
          "id": 6,
          "value": 0.0
        },
        {
          "id": 7,
          "value": 0.0
        }
      ],
      "leftModuleId": 21,
      "rightModuleId": 4,
      "data": {
        "lissajous": 0,
        "external": 0
      },
      "pos": [
        19,
        0
      ]
    },
    {
      "id": 18,
      "plugin": "Fundamental",
      "version": "1.4.0",
      "model": "LFO",
      "params": [
        {
          "id": 0,
          "value": 1.0
        },
        {
          "id": 1,
          "value": 0.0
        },
        {
          "id": 2,
          "value": -4.24700594
        },
        {
          "id": 3,
          "value": 0.372999638
        },
        {
          "id": 4,
          "value": 0.203999996
        },
        {
          "id": 5,
          "value": 0.473050624
        },
        {
          "id": 6,
          "value": 0.358500063
        }
      ],
      "rightModuleId": 55,
      "pos": [
        47,
        0
      ]
    },
    {
      "id": 21,
      "plugin": "Fundamental",
      "version": "1.4.0",
      "model": "8vert",
      "params": [
        {
          "id": 0,
          "value": -0.24499996
        },
        {
          "id": 1,
          "value": 0.285999954
        },
        {
          "id": 2,
          "value": -0.249000445
        },
        {
          "id": 3,
          "value": -0.161000654
        },
        {
          "id": 4,
          "value": 0.0
        },
        {
          "id": 5,
          "value": 0.0
        },
        {
          "id": 6,
          "value": 0.303998858
        },
        {
          "id": 7,
          "value": 0.00399999041
        }
      ],
      "rightModuleId": 7,
      "pos": [
        11,
        0
      ]
    },
    {
      "id": 35,
      "plugin": "AmalgamatedHarmonics",
      "version": "1.0.4",
      "model": "Galaxy",
      "params": [
        {
          "id": 0,
          "value": 7.0
        },
        {
          "id": 1,
          "value": 4.0
        },
        {
          "id": 2,
          "value": 0.430213243
        }
      ],
      "leftModuleId": 37,
      "rightModuleId": 41,
      "data": {
        "offset": 12,
        "mode": 1,
        "inversions": 0,
        "voltscale": 0
      },
      "pos": [
        48,
        1
      ]
    },
    {
      "id": 37,
      "plugin": "Befaco",
      "version": "1.0.0",
      "model": "SpringReverb",
      "params": [
        {
          "id": 0,
          "value": 0.481499821
        },
        {
          "id": 1,
          "value": 0.180000111
        },
        {
          "id": 2,
          "value": 0.645000041
        },
        {
          "id": 3,
          "value": 0.503499925
        }
      ],
      "leftModuleId": 39,
      "rightModuleId": 35,
      "pos": [
        40,
        1
      ]
    },
    {
      "id": 41,
      "plugin": "AmalgamatedHarmonics",
      "version": "1.0.4",
      "model": "Arpeggiator2",
      "params": [
        {
          "id": 0,
          "value": 0.0
        },
        {
          "id": 1,
          "value": 0.0
        },
        {
          "id": 2,
          "value": 3.0
        },
        {
          "id": 3,
          "value": 3.0
        },
        {
          "id": 4,
          "value": 12.0
        },
        {
          "id": 5,
          "value": 20.0
        },
        {
          "id": 6,
          "value": 0.0
        }
      ],
      "leftModuleId": 35,
      "data": {
        "gateMode": 0
      },
      "pos": [
        64,
        1
      ]
    },
    {
      "id": 55,
      "plugin": "cf",
      "version": "1.1.1",
      "model": "PLAYER",
      "params": [
        {
          "id": 0,
          "value": 2.95500565
        },
        {
          "id": 1,
          "value": -0.0349986255
        },
        {
          "id": 2,
          "value": -0.48399958
        },
        {
          "id": 3,
          "value": 0.0240005348
        },
        {
          "id": 4,
          "value": 0.0
        },
        {
          "id": 5,
          "value": 0.0
        },
        {
          "id": 6,
          "value": 0.0
        }
      ],
      "leftModuleId": 18,
      "rightModuleId": 56,
      "data": {
        "lastPath": "/Users/lorenasalome/Documents/DigMediaYorkU/VSL/gitShow1/extensions/elPamperoSample.wav",
        "oscstate": 0
      },
      "pos": [
        57,
        0
      ]
    },
    {
      "id": 56,
      "plugin": "Fundamental",
      "version": "1.4.0",
      "model": "Unity",
      "params": [
        {
          "id": 0,
          "value": 0.0
        },
        {
          "id": 1,
          "value": 0.0
        }
      ],
      "leftModuleId": 55,
      "rightModuleId": 2,
      "data": {
        "merge": false
      },
      "pos": [
        66,
        0
      ]
    },
    {
      "id": 39,
      "plugin": "Fundamental",
      "version": "1.4.0",
      "model": "LFO",
      "params": [
        {
          "id": 0,
          "value": 1.0
        },
        {
          "id": 1,
          "value": 1.0
        },
        {
          "id": 2,
          "value": -0.736999989
        },
        {
          "id": 3,
          "value": 0.458499968
        },
        {
          "id": 4,
          "value": 0.0
        },
        {
          "id": 5,
          "value": 0.617600143
        },
        {
          "id": 6,
          "value": 0.0
        }
      ],
      "leftModuleId": 34,
      "rightModuleId": 37,
      "pos": [
        30,
        1
      ]
    },
    {
      "id": 34,
      "plugin": "Fundamental",
      "version": "1.4.0",
      "model": "LFO",
      "params": [
        {
          "id": 0,
          "value": 1.0
        },
        {
          "id": 1,
          "value": 1.0
        },
        {
          "id": 2,
          "value": 2.06201243
        },
        {
          "id": 3,
          "value": 0.687000036
        },
        {
          "id": 4,
          "value": 0.406500012
        },
        {
          "id": 5,
          "value": 0.99000001
        },
        {
          "id": 6,
          "value": 0.361499995
        }
      ],
      "leftModuleId": 26,
      "rightModuleId": 39,
      "pos": [
        20,
        1
      ]
    },
    {
      "id": 26,
      "plugin": "Fundamental",
      "version": "1.4.0",
      "model": "LFO",
      "params": [
        {
          "id": 0,
          "value": 0.0
        },
        {
          "id": 1,
          "value": 1.0
        },
        {
          "id": 2,
          "value": 0.388004959
        },
        {
          "id": 3,
          "value": 0.161499754
        },
        {
          "id": 4,
          "value": 0.77850008
        },
        {
          "id": 5,
          "value": 0.575950027
        },
        {
          "id": 6,
          "value": 0.0
        }
      ],
      "leftModuleId": 27,
      "rightModuleId": 34,
      "pos": [
        10,
        1
      ]
    },
    {
      "id": 27,
      "plugin": "Fundamental",
      "version": "1.4.0",
      "model": "LFO",
      "params": [
        {
          "id": 0,
          "value": 1.0
        },
        {
          "id": 1,
          "value": 0.0
        },
        {
          "id": 2,
          "value": -2.06000447
        },
        {
          "id": 3,
          "value": 0.409500152
        },
        {
          "id": 4,
          "value": 0.372000068
        },
        {
          "id": 5,
          "value": 0.404939532
        },
        {
          "id": 6,
          "value": 0.633000135
        }
      ],
      "rightModuleId": 26,
      "pos": [
        0,
        1
      ]
    },
    {
      "id": 57,
      "plugin": "VCV-Recorder",
      "version": "1.0.1",
      "model": "Recorder",
      "params": [
        {
          "id": 0,
          "value": 1.0
        },
        {
          "id": 1,
          "value": 0.0
        }
      ],
      "data": {
        "format": "wav",
        "path": "/Users/lorenasalome/Documents/DigMediaYorkU/VSL/week2/ExperimentingWRack/late night/recording.wav",
        "incrementPath": true,
        "sampleRate": 44100,
        "depth": 16,
        "bitRate": 320000
      },
      "pos": [
        84,
        1
      ]
    }
  ],
  "cables": [
    {
      "id": 381,
      "outputModuleId": 2,
      "outputId": 0,
      "inputModuleId": 1,
      "inputId": 1,
      "color": "#0c8e15"
    },
    {
      "id": 426,
      "outputModuleId": 37,
      "outputId": 1,
      "inputModuleId": 4,
      "inputId": 2,
      "color": "#0986ad"
    },
    {
      "id": 525,
      "outputModuleId": 21,
      "outputId": 3,
      "inputModuleId": 7,
      "inputId": 1,
      "color": "#0c8e15"
    },
    {
      "id": 526,
      "outputModuleId": 21,
      "outputId": 2,
      "inputModuleId": 41,
      "inputId": 1,
      "color": "#c91847"
    },
    {
      "id": 478,
      "outputModuleId": 41,
      "outputId": 1,
      "inputModuleId": 41,
      "inputId": 0,
      "color": "#0986ad"
    },
    {
      "id": 527,
      "outputModuleId": 41,
      "outputId": 2,
      "inputModuleId": 41,
      "inputId": 8,
      "color": "#0c8e15"
    },
    {
      "id": 529,
      "outputModuleId": 41,
      "outputId": 3,
      "inputModuleId": 41,
      "inputId": 11,
      "color": "#0986ad"
    },
    {
      "id": 557,
      "outputModuleId": 18,
      "outputId": 0,
      "inputModuleId": 56,
      "inputId": 0,
      "color": "#c91847"
    },
    {
      "id": 579,
      "outputModuleId": 18,
      "outputId": 2,
      "inputModuleId": 55,
      "inputId": 2,
      "color": "#0c8e15"
    },
    {
      "id": 560,
      "outputModuleId": 55,
      "outputId": 1,
      "inputModuleId": 56,
      "inputId": 2,
      "color": "#0986ad"
    },
    {
      "id": 559,
      "outputModuleId": 55,
      "outputId": 0,
      "inputModuleId": 56,
      "inputId": 4,
      "color": "#c9b70e"
    },
    {
      "id": 584,
      "outputModuleId": 55,
      "outputId": 1,
      "inputModuleId": 56,
      "inputId": 1,
      "color": "#c9b70e"
    },
    {
      "id": 445,
      "outputModuleId": 37,
      "outputId": 0,
      "inputModuleId": 39,
      "inputId": 1,
      "color": "#0986ad"
    },
    {
      "id": 447,
      "outputModuleId": 39,
      "outputId": 2,
      "inputModuleId": 39,
      "inputId": 2,
      "color": "#0c8e15"
    },
    {
      "id": 446,
      "outputModuleId": 39,
      "outputId": 2,
      "inputModuleId": 37,
      "inputId": 2,
      "color": "#c9b70e"
    },
    {
      "id": 442,
      "outputModuleId": 39,
      "outputId": 1,
      "inputModuleId": 37,
      "inputId": 4,
      "color": "#c9b70e"
    },
    {
      "id": 440,
      "outputModuleId": 39,
      "outputId": 0,
      "inputModuleId": 37,
      "inputId": 0,
      "color": "#c91847"
    },
    {
      "id": 443,
      "outputModuleId": 39,
      "outputId": 0,
      "inputModuleId": 34,
      "inputId": 3,
      "color": "#0c8e15"
    },
    {
      "id": 404,
      "outputModuleId": 34,
      "outputId": 1,
      "inputModuleId": 34,
      "inputId": 1,
      "color": "#0986ad"
    },
    {
      "id": 401,
      "outputModuleId": 34,
      "outputId": 1,
      "inputModuleId": 7,
      "inputId": 2,
      "color": "#c9b70e"
    },
    {
      "id": 398,
      "outputModuleId": 34,
      "outputId": 0,
      "inputModuleId": 35,
      "inputId": 2,
      "color": "#c91847"
    },
    {
      "id": 394,
      "outputModuleId": 34,
      "outputId": 0,
      "inputModuleId": 26,
      "inputId": 1,
      "color": "#c91847"
    },
    {
      "id": 395,
      "outputModuleId": 26,
      "outputId": 3,
      "inputModuleId": 34,
      "inputId": 0,
      "color": "#0986ad"
    },
    {
      "id": 396,
      "outputModuleId": 26,
      "outputId": 2,
      "inputModuleId": 35,
      "inputId": 1,
      "color": "#c9b70e"
    },
    {
      "id": 375,
      "outputModuleId": 26,
      "outputId": 0,
      "inputModuleId": 27,
      "inputId": 0,
      "color": "#c9b70e"
    },
    {
      "id": 351,
      "outputModuleId": 27,
      "outputId": 3,
      "inputModuleId": 26,
      "inputId": 2,
      "color": "#c91847"
    },
    {
      "id": 399,
      "outputModuleId": 27,
      "outputId": 3,
      "inputModuleId": 35,
      "inputId": 0,
      "color": "#0986ad"
    },
    {
      "id": 449,
      "outputModuleId": 27,
      "outputId": 2,
      "inputModuleId": 37,
      "inputId": 3,
      "color": "#0986ad"
    },
    {
      "id": 414,
      "outputModuleId": 27,
      "outputId": 1,
      "inputModuleId": 27,
      "inputId": 2,
      "color": "#c91847"
    },
    {
      "id": 572,
      "outputModuleId": 56,
      "outputId": 0,
      "inputModuleId": 2,
      "inputId": 1,
      "color": "#0986ad"
    },
    {
      "id": 451,
      "outputModuleId": 2,
      "outputId": 0,
      "inputModuleId": 1,
      "inputId": 0,
      "color": "#c9b70e"
    },
    {
      "id": 611,
      "outputModuleId": 2,
      "outputId": 0,
      "inputModuleId": 57,
      "inputId": 2,
      "color": "#0986ad"
    },
    {
      "id": 612,
      "outputModuleId": 2,
      "outputId": 0,
      "inputModuleId": 57,
      "inputId": 3,
      "color": "#0986ad"
    },
    {
      "id": 651,
      "outputModuleId": 34,
      "outputId": 0,
      "inputModuleId": 4,
      "inputId": 3,
      "color": "#0c8e15"
    },
    {
      "id": 578,
      "outputModuleId": 18,
      "outputId": 3,
      "inputModuleId": 55,
      "inputId": 1,
      "color": "#c9b70e"
    },
    {
      "id": 653,
      "outputModuleId": 34,
      "outputId": 1,
      "inputModuleId": 4,
      "inputId": 0,
      "color": "#c9b70e"
    },
    {
      "id": 652,
      "outputModuleId": 4,
      "outputId": 0,
      "inputModuleId": 56,
      "inputId": 3,
      "color": "#0986ad"
    },
    {
      "id": 655,
      "outputModuleId": 4,
      "outputId": 0,
      "inputModuleId": 55,
      "inputId": 3,
      "color": "#0986ad"
    }
  ]
}