{
  "version": "1.1.6",
  "modules": [
    {
      "id": 1,
      "plugin": "Core",
      "version": "1.1.6",
      "model": "AudioInterface",
      "params": [],
      "leftModuleId": 2,
      "rightModuleId": 58,
      "data": {
        "audio": {
          "driver": 5,
          "deviceName": "Apple Inc.: Built-in Output",
          "offset": 0,
          "maxChannels": 8,
          "sampleRate": 44100,
          "blockSize": 512
        }
      },
      "pos": [
        95,
        2
      ]
    },
    {
      "id": 2,
      "plugin": "Fundamental",
      "version": "1.4.0",
      "model": "VCMixer",
      "params": [
        {
          "id": 0,
          "value": 0.0980147123
        },
        {
          "id": 1,
          "value": 0.667999804
        },
        {
          "id": 2,
          "value": 0.368274301
        },
        {
          "id": 3,
          "value": 0.529691577
        },
        {
          "id": 4,
          "value": 0.655210793
        }
      ],
      "leftModuleId": 72,
      "rightModuleId": 1,
      "pos": [
        85,
        2
      ]
    },
    {
      "id": 8,
      "plugin": "Core",
      "version": "1.1.6",
      "model": "Notes",
      "params": [],
      "leftModuleId": 76,
      "rightModuleId": 77,
      "text": "patch instructions:\n\n1. Choose an audio driver and device in the AUDIO-8 module.\n\n2. Drag knobs up/down. Hold Ctrl (Cmd on Mac) while dragging to fine-tune. Right-click knobs to edit, or double-click to initialize.\n\n3. Drag ports to create and move 3ables. Stack multiple cables on outputs by holding Ctrl (Cmd on Mac) and dragging from an output.\n\n4. Right-click on an empty rack space to add new modules.",
      "pos": [
        147,
        2
      ]
    },
    {
      "id": 27,
      "plugin": "Fundamental",
      "version": "1.4.0",
      "model": "LFO",
      "params": [
        {
          "id": 0,
          "value": 1.0
        },
        {
          "id": 1,
          "value": 0.0
        },
        {
          "id": 2,
          "value": 8.274683
        },
        {
          "id": 3,
          "value": 0.332536936
        },
        {
          "id": 4,
          "value": 0.678923547
        },
        {
          "id": 5,
          "value": 0.114826754
        },
        {
          "id": 6,
          "value": 0.474023908
        }
      ],
      "leftModuleId": 46,
      "rightModuleId": 44,
      "pos": [
        43,
        2
      ]
    },
    {
      "id": 32,
      "plugin": "Befaco",
      "version": "1.0.0",
      "model": "SpringReverb",
      "params": [
        {
          "id": 0,
          "value": 0.0112987161
        },
        {
          "id": 1,
          "value": 0.694778502
        },
        {
          "id": 2,
          "value": 0.365545213
        },
        {
          "id": 3,
          "value": 0.727135718
        }
      ],
      "leftModuleId": 71,
      "rightModuleId": 72,
      "pos": [
        73,
        2
      ]
    },
    {
      "id": 43,
      "plugin": "Fundamental",
      "version": "1.4.0",
      "model": "Delay",
      "params": [
        {
          "id": 0,
          "value": 0.11444962
        },
        {
          "id": 1,
          "value": 0.00150000001
        },
        {
          "id": 2,
          "value": 0.536500037
        },
        {
          "id": 3,
          "value": 0.952884495
        }
      ],
      "leftModuleId": 44,
      "rightModuleId": 71,
      "pos": [
        61,
        2
      ]
    },
    {
      "id": 44,
      "plugin": "Fundamental",
      "version": "1.4.0",
      "model": "ADSR",
      "params": [
        {
          "id": 0,
          "value": 0.498999983
        },
        {
          "id": 1,
          "value": 0.117635489
        },
        {
          "id": 2,
          "value": 0.374174058
        },
        {
          "id": 3,
          "value": 0.59631139
        }
      ],
      "leftModuleId": 27,
      "rightModuleId": 43,
      "pos": [
        53,
        2
      ]
    },
    {
      "id": 46,
      "plugin": "Fundamental",
      "version": "1.4.0",
      "model": "VCO",
      "params": [
        {
          "id": 0,
          "value": 0.0
        },
        {
          "id": 1,
          "value": 0.0
        },
        {
          "id": 2,
          "value": -48.3398857
        },
        {
          "id": 3,
          "value": 0.363994718
        },
        {
          "id": 4,
          "value": 0.922978938
        },
        {
          "id": 5,
          "value": 0.48973605
        },
        {
          "id": 6,
          "value": 0.524044931
        }
      ],
      "leftModuleId": 48,
      "rightModuleId": 27,
      "pos": [
        33,
        2
      ]
    },
    {
      "id": 48,
      "plugin": "Fundamental",
      "version": "1.4.0",
      "model": "Noise",
      "params": [],
      "leftModuleId": 69,
      "rightModuleId": 46,
      "pos": [
        30,
        2
      ]
    },
    {
      "id": 49,
      "plugin": "ModularFungi",
      "version": "1.0.0",
      "model": "Blank20HP",
      "params": [],
      "leftModuleId": 60,
      "rightModuleId": 81,
      "style": 0.0,
      "pos": [
        112,
        1
      ]
    },
    {
      "id": 50,
      "plugin": "ImpromptuModular",
      "version": "1.1.3",
      "model": "Clocked",
      "params": [
        {
          "id": 0,
          "value": 60.0
        },
        {
          "id": 1,
          "value": -13.0
        },
        {
          "id": 2,
          "value": 0.0
        },
        {
          "id": 3,
          "value": 0.0
        },
        {
          "id": 4,
          "value": 0.696881771
        },
        {
          "id": 5,
          "value": 0.384396076
        },
        {
          "id": 6,
          "value": 0.970884442
        },
        {
          "id": 7,
          "value": -0.876177788
        },
        {
          "id": 8,
          "value": 0.794145048
        },
        {
          "id": 9,
          "value": 0.631068528
        },
        {
          "id": 10,
          "value": 0.925328016
        },
        {
          "id": 11,
          "value": 0.0143980384
        },
        {
          "id": 12,
          "value": 0.0
        },
        {
          "id": 13,
          "value": 0.0
        },
        {
          "id": 14,
          "value": 0.0
        },
        {
          "id": 15,
          "value": 2.0
        },
        {
          "id": 16,
          "value": 3.0
        },
        {
          "id": 17,
          "value": 6.0
        },
        {
          "id": 18,
          "value": 0.0
        },
        {
          "id": 19,
          "value": 0.0
        }
      ],
      "leftModuleId": 61,
      "rightModuleId": 53,
      "data": {
        "panelTheme": 0,
        "running": true,
        "displayDelayNoteMode": true,
        "bpmDetectionMode": true,
        "restartOnStopStartRun": 0,
        "sendResetOnRestart": false,
        "ppqn": 24,
        "resetClockOutputsHigh": true,
        "momentaryRunInput": true
      },
      "pos": [
        30,
        1
      ]
    },
    {
      "id": 51,
      "plugin": "Valley",
      "version": "1.0.1",
      "model": "Plateau",
      "params": [
        {
          "id": 0,
          "value": 0.328867674
        },
        {
          "id": 1,
          "value": 0.231973052
        },
        {
          "id": 2,
          "value": 0.164055526
        },
        {
          "id": 3,
          "value": 4.53009081
        },
        {
          "id": 4,
          "value": 4.17859554
        },
        {
          "id": 5,
          "value": 0.750090241
        },
        {
          "id": 6,
          "value": 0.227687359
        },
        {
          "id": 7,
          "value": 0.929506183
        },
        {
          "id": 8,
          "value": 1.68923736
        },
        {
          "id": 9,
          "value": 9.35513973
        },
        {
          "id": 10,
          "value": 0.474318266
        },
        {
          "id": 11,
          "value": 0.321769536
        },
        {
          "id": 12,
          "value": 14.0961847
        },
        {
          "id": 13,
          "value": 0.0
        },
        {
          "id": 14,
          "value": 0.0
        },
        {
          "id": 15,
          "value": 0.0
        },
        {
          "id": 16,
          "value": 0.0
        },
        {
          "id": 17,
          "value": -0.919062018
        },
        {
          "id": 18,
          "value": -0.24652338
        },
        {
          "id": 19,
          "value": 0.332111239
        },
        {
          "id": 20,
          "value": 0.544886708
        },
        {
          "id": 21,
          "value": 0.00133085251
        },
        {
          "id": 22,
          "value": -0.987899542
        },
        {
          "id": 23,
          "value": 0.208841681
        },
        {
          "id": 24,
          "value": 0.435048342
        },
        {
          "id": 25,
          "value": -0.121392727
        },
        {
          "id": 26,
          "value": -0.369902611
        },
        {
          "id": 27,
          "value": -0.343540907
        },
        {
          "id": 28,
          "value": -0.45774138
        },
        {
          "id": 29,
          "value": 1.0
        },
        {
          "id": 30,
          "value": 0.0
        }
      ],
      "leftModuleId": 54,
      "rightModuleId": 60,
      "data": {
        "frozen": true,
        "freezeToggle": false,
        "panelStyle": 0,
        "tuned": 1,
        "diffuseInput": 0,
        "preDelayCVSens": 1,
        "inputSensitivity": 0,
        "outputSaturation": 1
      },
      "pos": [
        88,
        1
      ]
    },
    {
      "id": 53,
      "plugin": "cf",
      "version": "1.1.1",
      "model": "PLAYER",
      "params": [
        {
          "id": 0,
          "value": 3.87684226
        },
        {
          "id": 1,
          "value": -1.95062757
        },
        {
          "id": 2,
          "value": 0.157610774
        },
        {
          "id": 3,
          "value": -0.402180433
        },
        {
          "id": 4,
          "value": 0.0
        },
        {
          "id": 5,
          "value": 0.0
        },
        {
          "id": 6,
          "value": 0.0
        }
      ],
      "leftModuleId": 50,
      "rightModuleId": 57,
      "data": {
        "lastPath": "/Users/RAC.H/Desktop/Music bed dark deep bells resonant reverb_BLASTWAVEFX_00883.wav",
        "oscstate": 0
      },
      "pos": [
        50,
        1
      ]
    },
    {
      "id": 54,
      "plugin": "VultModulesFree",
      "version": "1.6.0",
      "model": "Trummor2",
      "params": [
        {
          "id": 0,
          "value": 0.138814211
        },
        {
          "id": 1,
          "value": -0.377893567
        },
        {
          "id": 2,
          "value": 0.401106179
        },
        {
          "id": 3,
          "value": 0.115795493
        },
        {
          "id": 4,
          "value": 0.790910244
        },
        {
          "id": 5,
          "value": -0.110573411
        },
        {
          "id": 6,
          "value": 0.568823278
        },
        {
          "id": 7,
          "value": 0.54625541
        },
        {
          "id": 8,
          "value": 0.0366380215
        },
        {
          "id": 9,
          "value": 0.0
        },
        {
          "id": 10,
          "value": 0.161670983
        },
        {
          "id": 11,
          "value": 0.108053863
        },
        {
          "id": 12,
          "value": 0.462720066
        },
        {
          "id": 13,
          "value": -0.13174963
        },
        {
          "id": 14,
          "value": -0.810302258
        },
        {
          "id": 15,
          "value": 0.276714206
        },
        {
          "id": 16,
          "value": 0.0055282712
        },
        {
          "id": 17,
          "value": 0.0
        },
        {
          "id": 18,
          "value": 0.669154882
        },
        {
          "id": 19,
          "value": 0.359931946
        },
        {
          "id": 20,
          "value": 0.870700121
        },
        {
          "id": 21,
          "value": 2.0
        },
        {
          "id": 22,
          "value": 0.93143779
        },
        {
          "id": 23,
          "value": 0.928245783
        },
        {
          "id": 24,
          "value": 0.0
        },
        {
          "id": 25,
          "value": 0.622994423
        },
        {
          "id": 26,
          "value": -0.603407979
        },
        {
          "id": 27,
          "value": -0.744666219
        },
        {
          "id": 28,
          "value": 0.245496988
        },
        {
          "id": 29,
          "value": 0.0
        },
        {
          "id": 30,
          "value": 0.0
        },
        {
          "id": 31,
          "value": 0.0
        },
        {
          "id": 32,
          "value": 0.0
        }
      ],
      "leftModuleId": 57,
      "rightModuleId": 51,
      "data": {
        "mod_a": 4,
        "mod_b": 13,
        "mod_c": 8,
        "mod_d": 16,
        "mk2": true
      },
      "pos": [
        68,
        1
      ]
    },
    {
      "id": 57,
      "plugin": "cf",
      "version": "1.1.1",
      "model": "PLAYER",
      "params": [
        {
          "id": 0,
          "value": 6.03829432
        },
        {
          "id": 1,
          "value": -1.72062683
        },
        {
          "id": 2,
          "value": 0.410399199
        },
        {
          "id": 3,
          "value": 0.0684663057
        },
        {
          "id": 4,
          "value": 0.0
        },
        {
          "id": 5,
          "value": 0.0
        },
        {
          "id": 6,
          "value": 0.0
        }
      ],
      "leftModuleId": 53,
      "rightModuleId": 54,
      "data": {
        "lastPath": "/Users/RAC.H/Desktop/RAD_TEXTURE_EDT_01.wav",
        "oscstate": 0
      },
      "pos": [
        59,
        1
      ]
    },
    {
      "id": 58,
      "plugin": "Fundamental",
      "version": "1.4.0",
      "model": "VCMixer",
      "params": [
        {
          "id": 0,
          "value": 1.0
        },
        {
          "id": 1,
          "value": 1.0
        },
        {
          "id": 2,
          "value": 1.0
        },
        {
          "id": 3,
          "value": 1.0
        },
        {
          "id": 4,
          "value": 1.0
        }
      ],
      "leftModuleId": 1,
      "rightModuleId": 88,
      "pos": [
        105,
        2
      ]
    },
    {
      "id": 60,
      "plugin": "Valley",
      "version": "1.0.1",
      "model": "Plateau",
      "params": [
        {
          "id": 0,
          "value": 0.302480459
        },
        {
          "id": 1,
          "value": 0.4586308
        },
        {
          "id": 2,
          "value": 0.225387186
        },
        {
          "id": 3,
          "value": 4.47578716
        },
        {
          "id": 4,
          "value": 1.11947834
        },
        {
          "id": 5,
          "value": 0.683632255
        },
        {
          "id": 6,
          "value": 3.77211285
        },
        {
          "id": 7,
          "value": 0.267184258
        },
        {
          "id": 8,
          "value": 2.51816392
        },
        {
          "id": 9,
          "value": 3.89076042
        },
        {
          "id": 10,
          "value": 0.12833482
        },
        {
          "id": 11,
          "value": 0.622008443
        },
        {
          "id": 12,
          "value": 9.32288551
        },
        {
          "id": 13,
          "value": 0.0
        },
        {
          "id": 14,
          "value": 0.0
        },
        {
          "id": 15,
          "value": 1.0
        },
        {
          "id": 16,
          "value": 0.0
        },
        {
          "id": 17,
          "value": -0.462237239
        },
        {
          "id": 18,
          "value": -0.190709472
        },
        {
          "id": 19,
          "value": 0.254391909
        },
        {
          "id": 20,
          "value": 0.960947514
        },
        {
          "id": 21,
          "value": -0.633926868
        },
        {
          "id": 22,
          "value": -0.698259473
        },
        {
          "id": 23,
          "value": -0.425887585
        },
        {
          "id": 24,
          "value": -0.298175812
        },
        {
          "id": 25,
          "value": 0.408957481
        },
        {
          "id": 26,
          "value": 0.432724237
        },
        {
          "id": 27,
          "value": 0.12878561
        },
        {
          "id": 28,
          "value": 0.760452271
        },
        {
          "id": 29,
          "value": 1.0
        },
        {
          "id": 30,
          "value": 1.0
        }
      ],
      "leftModuleId": 51,
      "rightModuleId": 49,
      "data": {
        "frozen": false,
        "freezeToggle": true,
        "panelStyle": 0,
        "tuned": 1,
        "diffuseInput": 1,
        "preDelayCVSens": 1,
        "inputSensitivity": 0,
        "outputSaturation": 1
      },
      "pos": [
        100,
        1
      ]
    },
    {
      "id": 61,
      "plugin": "ImpromptuModular",
      "version": "1.1.3",
      "model": "Clocked",
      "params": [
        {
          "id": 0,
          "value": 120.0
        },
        {
          "id": 1,
          "value": -13.0
        },
        {
          "id": 2,
          "value": 0.0
        },
        {
          "id": 3,
          "value": 0.0
        },
        {
          "id": 4,
          "value": 0.00241816044
        },
        {
          "id": 5,
          "value": 0.922237754
        },
        {
          "id": 6,
          "value": 0.162995934
        },
        {
          "id": 7,
          "value": 0.410055518
        },
        {
          "id": 8,
          "value": 0.412058115
        },
        {
          "id": 9,
          "value": 0.352225363
        },
        {
          "id": 10,
          "value": 0.668865085
        },
        {
          "id": 11,
          "value": 0.424729407
        },
        {
          "id": 12,
          "value": 0.0
        },
        {
          "id": 13,
          "value": 0.0
        },
        {
          "id": 14,
          "value": 0.0
        },
        {
          "id": 15,
          "value": 1.0
        },
        {
          "id": 16,
          "value": 3.0
        },
        {
          "id": 17,
          "value": 4.0
        },
        {
          "id": 18,
          "value": 0.0
        },
        {
          "id": 19,
          "value": 0.0
        }
      ],
      "leftModuleId": 68,
      "rightModuleId": 50,
      "data": {
        "panelTheme": 0,
        "running": true,
        "displayDelayNoteMode": true,
        "bpmDetectionMode": false,
        "restartOnStopStartRun": 0,
        "sendResetOnRestart": false,
        "ppqn": 4,
        "resetClockOutputsHigh": true,
        "momentaryRunInput": true
      },
      "pos": [
        10,
        1
      ]
    },
    {
      "id": 62,
      "plugin": "NYSTHI",
      "version": "1.0.9",
      "model": "MasterRecorder",
      "params": [
        {
          "id": 0,
          "value": 0.0
        },
        {
          "id": 1,
          "value": 0.0
        },
        {
          "id": 2,
          "value": 1.0
        }
      ],
      "leftModuleId": 75,
      "rightModuleId": 76,
      "data": {
        "nysthi_id": "MR_n8sdHak1",
        "wavebits": 9,
        "m_attenuation": 1.0
      },
      "pos": [
        139,
        2
      ]
    },
    {
      "id": 63,
      "plugin": "cf",
      "version": "1.1.1",
      "model": "PLAYER",
      "params": [
        {
          "id": 0,
          "value": 0.0
        },
        {
          "id": 1,
          "value": 0.0
        },
        {
          "id": 2,
          "value": 0.0
        },
        {
          "id": 3,
          "value": 0.0
        },
        {
          "id": 4,
          "value": 0.0
        },
        {
          "id": 5,
          "value": 0.0
        },
        {
          "id": 6,
          "value": 0.0
        }
      ],
      "leftModuleId": 141,
      "data": {
        "lastPath": "/Users/RAC.H/Desktop/Chinese_Dulcimer_Bow_Slow_1.wav",
        "oscstate": 1
      },
      "pos": [
        96,
        3
      ]
    },
    {
      "id": 64,
      "plugin": "Fundamental",
      "version": "1.4.0",
      "model": "VCMixer",
      "params": [
        {
          "id": 0,
          "value": 1.0
        },
        {
          "id": 1,
          "value": 0.562341332
        },
        {
          "id": 2,
          "value": 0.562341332
        },
        {
          "id": 3,
          "value": 1.0
        },
        {
          "id": 4,
          "value": 1.0
        }
      ],
      "leftModuleId": 143,
      "rightModuleId": 149,
      "pos": [
        96,
        4
      ]
    },
    {
      "id": 65,
      "plugin": "Valley",
      "version": "1.0.1",
      "model": "Plateau",
      "params": [
        {
          "id": 0,
          "value": 0.444733143
        },
        {
          "id": 1,
          "value": 0.659513414
        },
        {
          "id": 2,
          "value": 0.305245727
        },
        {
          "id": 3,
          "value": 3.55820489
        },
        {
          "id": 4,
          "value": 4.19256163
        },
        {
          "id": 5,
          "value": 0.785492301
        },
        {
          "id": 6,
          "value": 5.67688704
        },
        {
          "id": 7,
          "value": 0.65746057
        },
        {
          "id": 8,
          "value": 8.5285387
        },
        {
          "id": 9,
          "value": 7.44756985
        },
        {
          "id": 10,
          "value": 0.208821774
        },
        {
          "id": 11,
          "value": 0.917235732
        },
        {
          "id": 12,
          "value": 12.6629086
        },
        {
          "id": 13,
          "value": 0.0
        },
        {
          "id": 14,
          "value": 0.0
        },
        {
          "id": 15,
          "value": 1.0
        },
        {
          "id": 16,
          "value": 0.0
        },
        {
          "id": 17,
          "value": -0.440110326
        },
        {
          "id": 18,
          "value": -0.132528782
        },
        {
          "id": 19,
          "value": -0.971592426
        },
        {
          "id": 20,
          "value": -0.907513857
        },
        {
          "id": 21,
          "value": -0.678076863
        },
        {
          "id": 22,
          "value": 0.203638673
        },
        {
          "id": 23,
          "value": -0.241941571
        },
        {
          "id": 24,
          "value": -0.61281836
        },
        {
          "id": 25,
          "value": -0.076508522
        },
        {
          "id": 26,
          "value": 0.292129636
        },
        {
          "id": 27,
          "value": 0.287487268
        },
        {
          "id": 28,
          "value": -0.739416122
        },
        {
          "id": 29,
          "value": 1.0
        },
        {
          "id": 30,
          "value": 0.0
        }
      ],
      "data": {
        "frozen": false,
        "freezeToggle": true,
        "panelStyle": 0,
        "tuned": 1,
        "diffuseInput": 0,
        "preDelayCVSens": 1,
        "inputSensitivity": 0,
        "outputSaturation": 1
      },
      "pos": [
        99,
        5
      ]
    },
    {
      "id": 68,
      "plugin": "ModularFungi",
      "version": "1.0.0",
      "model": "Blank4HP",
      "params": [],
      "leftModuleId": 83,
      "rightModuleId": 61,
      "style": 0.0,
      "pos": [
        6,
        1
      ]
    },
    {
      "id": 69,
      "plugin": "ModularFungi",
      "version": "1.0.0",
      "model": "Blank3HP",
      "params": [],
      "rightModuleId": 48,
      "style": 0.0,
      "pos": [
        27,
        2
      ]
    },
    {
      "id": 71,
      "plugin": "ModularFungi",
      "version": "1.0.0",
      "model": "Blank4HP",
      "params": [],
      "leftModuleId": 43,
      "rightModuleId": 32,
      "style": 0.0,
      "pos": [
        69,
        2
      ]
    },
    {
      "id": 72,
      "plugin": "ModularFungi",
      "version": "1.0.0",
      "model": "Blank4HP",
      "params": [],
      "leftModuleId": 32,
      "rightModuleId": 2,
      "style": 0.0,
      "pos": [
        81,
        2
      ]
    },
    {
      "id": 74,
      "plugin": "ModularFungi",
      "version": "1.0.0",
      "model": "Blank3HP",
      "params": [],
      "leftModuleId": 124,
      "rightModuleId": 129,
      "style": 0.0,
      "pos": [
        47,
        4
      ]
    },
    {
      "id": 75,
      "plugin": "ModularFungi",
      "version": "1.0.0",
      "model": "Blank3HP",
      "params": [],
      "rightModuleId": 62,
      "style": 0.0,
      "pos": [
        136,
        2
      ]
    },
    {
      "id": 76,
      "plugin": "ModularFungi",
      "version": "1.0.0",
      "model": "Blank3HP",
      "params": [],
      "leftModuleId": 62,
      "rightModuleId": 8,
      "style": 0.0,
      "pos": [
        144,
        2
      ]
    },
    {
      "id": 77,
      "plugin": "ModularFungi",
      "version": "1.0.0",
      "model": "Blank3HP",
      "params": [],
      "leftModuleId": 8,
      "style": 0.0,
      "pos": [
        163,
        2
      ]
    },
    {
      "id": 79,
      "plugin": "ModularFungi",
      "version": "1.0.0",
      "model": "Blank3HP",
      "params": [],
      "style": 0.0,
      "pos": [
        138,
        3
      ]
    },
    {
      "id": 80,
      "plugin": "ModularFungi",
      "version": "1.0.0",
      "model": "Blank3HP",
      "params": [],
      "rightModuleId": 82,
      "style": 0.0,
      "pos": [
        153,
        3
      ]
    },
    {
      "id": 81,
      "plugin": "ModularFungi",
      "version": "1.0.0",
      "model": "Blank4HP",
      "params": [],
      "leftModuleId": 49,
      "rightModuleId": 84,
      "style": 0.0,
      "pos": [
        132,
        1
      ]
    },
    {
      "id": 82,
      "plugin": "ModularFungi",
      "version": "1.0.0",
      "model": "Blank4HP",
      "params": [],
      "leftModuleId": 80,
      "style": 0.0,
      "pos": [
        156,
        3
      ]
    },
    {
      "id": 83,
      "plugin": "ModularFungi",
      "version": "1.0.0",
      "model": "Blank3HP",
      "params": [],
      "rightModuleId": 68,
      "style": 0.0,
      "pos": [
        3,
        1
      ]
    },
    {
      "id": 84,
      "plugin": "ModularFungi",
      "version": "1.0.0",
      "model": "Blank3HP",
      "params": [],
      "leftModuleId": 81,
      "style": 0.0,
      "pos": [
        136,
        1
      ]
    },
    {
      "id": 85,
      "plugin": "cf",
      "version": "1.1.1",
      "model": "PLAYER",
      "params": [
        {
          "id": 0,
          "value": 5.17319202
        },
        {
          "id": 1,
          "value": 0.0
        },
        {
          "id": 2,
          "value": 0.661697149
        },
        {
          "id": 3,
          "value": 0.297810674
        },
        {
          "id": 4,
          "value": 0.0
        },
        {
          "id": 5,
          "value": 0.0
        },
        {
          "id": 6,
          "value": 0.0
        }
      ],
      "leftModuleId": 128,
      "rightModuleId": 121,
      "data": {
        "lastPath": "/Users/RAC.H/Desktop/Xiao_Dm_Ph1.wav",
        "oscstate": 0
      },
      "pos": [
        57,
        3
      ]
    },
    {
      "id": 87,
      "plugin": "Fundamental",
      "version": "1.4.0",
      "model": "VCMixer",
      "params": [
        {
          "id": 0,
          "value": 1.0
        },
        {
          "id": 1,
          "value": 1.0
        },
        {
          "id": 2,
          "value": 1.0
        },
        {
          "id": 3,
          "value": 1.0
        },
        {
          "id": 4,
          "value": 1.0
        }
      ],
      "leftModuleId": 130,
      "rightModuleId": 108,
      "pos": [
        57,
        4
      ]
    },
    {
      "id": 88,
      "plugin": "Fundamental",
      "version": "1.4.0",
      "model": "VCMixer",
      "params": [
        {
          "id": 0,
          "value": 0.86693716
        },
        {
          "id": 1,
          "value": 0.459395587
        },
        {
          "id": 2,
          "value": 0.260613769
        },
        {
          "id": 3,
          "value": 0.702356756
        },
        {
          "id": 4,
          "value": 0.772824585
        }
      ],
      "leftModuleId": 58,
      "rightModuleId": 89,
      "pos": [
        115,
        2
      ]
    },
    {
      "id": 89,
      "plugin": "Fundamental",
      "version": "1.4.0",
      "model": "VCMixer",
      "params": [
        {
          "id": 0,
          "value": 1.25136113
        },
        {
          "id": 1,
          "value": 0.473162442
        },
        {
          "id": 2,
          "value": 0.649287283
        },
        {
          "id": 3,
          "value": 0.384972513
        },
        {
          "id": 4,
          "value": 0.670439124
        }
      ],
      "leftModuleId": 88,
      "pos": [
        125,
        2
      ]
    },
    {
      "id": 92,
      "plugin": "Valley",
      "version": "1.0.1",
      "model": "Plateau",
      "params": [
        {
          "id": 0,
          "value": 0.532075703
        },
        {
          "id": 1,
          "value": 0.690260708
        },
        {
          "id": 2,
          "value": 0.317569941
        },
        {
          "id": 3,
          "value": 2.61685729
        },
        {
          "id": 4,
          "value": 7.09640741
        },
        {
          "id": 5,
          "value": 0.741366506
        },
        {
          "id": 6,
          "value": 8.19635677
        },
        {
          "id": 7,
          "value": 0.509392381
        },
        {
          "id": 8,
          "value": 7.72574949
        },
        {
          "id": 9,
          "value": 9.34771061
        },
        {
          "id": 10,
          "value": 0.525261283
        },
        {
          "id": 11,
          "value": 0.341353744
        },
        {
          "id": 12,
          "value": 3.01486969
        },
        {
          "id": 13,
          "value": 0.0
        },
        {
          "id": 14,
          "value": 0.0
        },
        {
          "id": 15,
          "value": 1.0
        },
        {
          "id": 16,
          "value": 0.0
        },
        {
          "id": 17,
          "value": -0.962219357
        },
        {
          "id": 18,
          "value": 0.848527193
        },
        {
          "id": 19,
          "value": 0.682309031
        },
        {
          "id": 20,
          "value": -0.43292737
        },
        {
          "id": 21,
          "value": -0.509883285
        },
        {
          "id": 22,
          "value": 0.322034001
        },
        {
          "id": 23,
          "value": 0.6771909
        },
        {
          "id": 24,
          "value": 0.508906484
        },
        {
          "id": 25,
          "value": -0.48682642
        },
        {
          "id": 26,
          "value": -0.937628269
        },
        {
          "id": 27,
          "value": -0.520794749
        },
        {
          "id": 28,
          "value": -0.444801927
        },
        {
          "id": 29,
          "value": 1.0
        },
        {
          "id": 30,
          "value": 0.0
        }
      ],
      "leftModuleId": 96,
      "data": {
        "frozen": false,
        "freezeToggle": true,
        "panelStyle": 0,
        "tuned": 1,
        "diffuseInput": 0,
        "preDelayCVSens": 1,
        "inputSensitivity": 0,
        "outputSaturation": 1
      },
      "pos": [
        68,
        0
      ]
    },
    {
      "id": 96,
      "plugin": "StellareModular",
      "version": "1.0.0",
      "model": "TuringMachine",
      "params": [
        {
          "id": 0,
          "value": 0.804359734
        },
        {
          "id": 1,
          "value": 0.00884723663
        },
        {
          "id": 2,
          "value": 0.178016484
        },
        {
          "id": 3,
          "value": 0.257691443
        },
        {
          "id": 4,
          "value": 0.588623881
        },
        {
          "id": 5,
          "value": -0.0686781406
        },
        {
          "id": 6,
          "value": 5.0
        },
        {
          "id": 7,
          "value": 0.817166507
        },
        {
          "id": 8,
          "value": 0.0
        },
        {
          "id": 9,
          "value": 0.0
        },
        {
          "id": 10,
          "value": 0.0
        },
        {
          "id": 11,
          "value": 0.0
        },
        {
          "id": 12,
          "value": 0.0
        }
      ],
      "rightModuleId": 92,
      "data": {
        "pulses_mode": 0
      },
      "pos": [
        50,
        0
      ]
    },
    {
      "id": 97,
      "plugin": "Fundamental",
      "version": "1.4.0",
      "model": "VCMixer",
      "params": [
        {
          "id": 0,
          "value": 1.0
        },
        {
          "id": 1,
          "value": 1.0
        },
        {
          "id": 2,
          "value": 1.0
        },
        {
          "id": 3,
          "value": 1.0
        },
        {
          "id": 4,
          "value": 1.0
        }
      ],
      "leftModuleId": 104,
      "rightModuleId": 124,
      "pos": [
        33,
        4
      ]
    },
    {
      "id": 100,
      "plugin": "Fundamental",
      "version": "1.4.0",
      "model": "VCMixer",
      "params": [
        {
          "id": 0,
          "value": 1.0
        },
        {
          "id": 1,
          "value": 1.0
        },
        {
          "id": 2,
          "value": 1.0
        },
        {
          "id": 3,
          "value": 1.0
        },
        {
          "id": 4,
          "value": 1.0
        }
      ],
      "leftModuleId": 142,
      "rightModuleId": 104,
      "pos": [
        17,
        4
      ]
    },
    {
      "id": 103,
      "plugin": "cf",
      "version": "1.1.1",
      "model": "PLAYER",
      "params": [
        {
          "id": 0,
          "value": 0.0
        },
        {
          "id": 1,
          "value": 0.0
        },
        {
          "id": 2,
          "value": 0.0
        },
        {
          "id": 3,
          "value": 0.0
        },
        {
          "id": 4,
          "value": 0.0
        },
        {
          "id": 5,
          "value": 0.0
        },
        {
          "id": 6,
          "value": 0.0
        }
      ],
      "leftModuleId": 107,
      "rightModuleId": 127,
      "data": {
        "lastPath": "/Users/RAC.H/Desktop/AutumnMoonOvertheCalmLak_C1.wav",
        "oscstate": 0
      },
      "pos": [
        34,
        3
      ]
    },
    {
      "id": 104,
      "plugin": "cf",
      "version": "1.1.1",
      "model": "MONO",
      "params": [
        {
          "id": 0,
          "value": -0.189561442
        },
        {
          "id": 1,
          "value": 3.49499941
        },
        {
          "id": 2,
          "value": 0.0
        },
        {
          "id": 3,
          "value": 0.0
        }
      ],
      "leftModuleId": 100,
      "rightModuleId": 97,
      "data": {
        "solostate": 1,
        "onstate": 1
      },
      "pos": [
        27,
        4
      ]
    },
    {
      "id": 106,
      "plugin": "Fundamental",
      "version": "1.4.0",
      "model": "VCMixer",
      "params": [
        {
          "id": 0,
          "value": 1.88209426
        },
        {
          "id": 1,
          "value": 0.861507535
        },
        {
          "id": 2,
          "value": 1.20612407
        },
        {
          "id": 3,
          "value": 0.782930791
        },
        {
          "id": 4,
          "value": 1.21530592
        }
      ],
      "pos": [
        135,
        4
      ]
    },
    {
      "id": 107,
      "plugin": "Core",
      "version": "1.1.6",
      "model": "Notes",
      "params": [],
      "leftModuleId": 123,
      "rightModuleId": 103,
      "text": "Autumn Moon Over the Calm Lak-C#1:\n\n- Language: Cantonese Opera\n- Singer: Hung Sin-nui\n- Lyrics:\nIt is common acting like a buffoon while getting drunk,\n\nSeek for a “kindred spirit” and “soul mate” while wandering amongst nature.\n \n ",
      "pos": [
        18,
        3
      ]
    },
    {
      "id": 108,
      "plugin": "cf",
      "version": "1.1.1",
      "model": "MONO",
      "params": [
        {
          "id": 0,
          "value": -0.0095613692
        },
        {
          "id": 1,
          "value": 1.72000158
        },
        {
          "id": 2,
          "value": 0.0
        },
        {
          "id": 3,
          "value": 0.0
        }
      ],
      "leftModuleId": 87,
      "rightModuleId": 109,
      "data": {
        "solostate": 1,
        "onstate": 1
      },
      "pos": [
        67,
        4
      ]
    },
    {
      "id": 109,
      "plugin": "Fundamental",
      "version": "1.4.0",
      "model": "VCMixer",
      "params": [
        {
          "id": 0,
          "value": 0.387993813
        },
        {
          "id": 1,
          "value": 0.955148399
        },
        {
          "id": 2,
          "value": 0.637373626
        },
        {
          "id": 3,
          "value": 0.52442044
        },
        {
          "id": 4,
          "value": 1.153126
        }
      ],
      "leftModuleId": 108,
      "rightModuleId": 164,
      "pos": [
        73,
        4
      ]
    },
    {
      "id": 112,
      "plugin": "Fundamental",
      "version": "1.4.0",
      "model": "VCMixer",
      "params": [
        {
          "id": 0,
          "value": 1.0
        },
        {
          "id": 1,
          "value": 1.0
        },
        {
          "id": 2,
          "value": 1.0
        },
        {
          "id": 3,
          "value": 1.0
        },
        {
          "id": 4,
          "value": 1.0
        }
      ],
      "leftModuleId": 135,
      "rightModuleId": 136,
      "pos": [
        45,
        5
      ]
    },
    {
      "id": 121,
      "plugin": "Core",
      "version": "1.1.6",
      "model": "Notes",
      "params": [],
      "leftModuleId": 85,
      "rightModuleId": 139,
      "text": "Bamboo flute D#:\n\n-  Low-tone\n  \n \n ",
      "pos": [
        66,
        3
      ]
    },
    {
      "id": 123,
      "plugin": "ModularFungi",
      "version": "1.0.0",
      "model": "Blank4HP",
      "params": [],
      "rightModuleId": 107,
      "style": 0.0,
      "pos": [
        14,
        3
      ]
    },
    {
      "id": 124,
      "plugin": "ModularFungi",
      "version": "1.0.0",
      "model": "Blank4HP",
      "params": [],
      "leftModuleId": 97,
      "rightModuleId": 74,
      "style": 0.0,
      "pos": [
        43,
        4
      ]
    },
    {
      "id": 126,
      "plugin": "ModularFungi",
      "version": "1.0.0",
      "model": "Blank12HP",
      "params": [],
      "leftModuleId": 127,
      "rightModuleId": 128,
      "style": 0.0,
      "pos": [
        44,
        3
      ]
    },
    {
      "id": 127,
      "plugin": "ModularFungi",
      "version": "1.0.0",
      "model": "Blank1HP",
      "params": [],
      "leftModuleId": 103,
      "rightModuleId": 126,
      "style": 0.0,
      "pos": [
        43,
        3
      ]
    },
    {
      "id": 128,
      "plugin": "ModularFungi",
      "version": "1.0.0",
      "model": "Blank1HP",
      "params": [],
      "leftModuleId": 126,
      "rightModuleId": 85,
      "style": 0.0,
      "pos": [
        56,
        3
      ]
    },
    {
      "id": 129,
      "plugin": "ModularFungi",
      "version": "1.0.0",
      "model": "Blank3HP",
      "params": [],
      "leftModuleId": 74,
      "rightModuleId": 130,
      "style": 0.0,
      "pos": [
        50,
        4
      ]
    },
    {
      "id": 130,
      "plugin": "ModularFungi",
      "version": "1.0.0",
      "model": "Blank4HP",
      "params": [],
      "leftModuleId": 129,
      "rightModuleId": 87,
      "style": 0.0,
      "pos": [
        53,
        4
      ]
    },
    {
      "id": 131,
      "plugin": "Fundamental",
      "version": "1.4.0",
      "model": "VCMixer",
      "params": [
        {
          "id": 0,
          "value": 1.0
        },
        {
          "id": 1,
          "value": 1.0
        },
        {
          "id": 2,
          "value": 1.0
        },
        {
          "id": 3,
          "value": 1.0
        },
        {
          "id": 4,
          "value": 1.0
        }
      ],
      "leftModuleId": 148,
      "pos": [
        58,
        6
      ]
    },
    {
      "id": 133,
      "plugin": "cf",
      "version": "1.1.1",
      "model": "STEREO",
      "params": [
        {
          "id": 0,
          "value": 0.0
        },
        {
          "id": 1,
          "value": 5.01500368
        },
        {
          "id": 2,
          "value": 0.0
        },
        {
          "id": 3,
          "value": 0.0
        }
      ],
      "leftModuleId": 147,
      "rightModuleId": 134,
      "data": {
        "solostate": 1,
        "onstate": 1
      },
      "pos": [
        37,
        5
      ]
    },
    {
      "id": 134,
      "plugin": "ModularFungi",
      "version": "1.0.0",
      "model": "Blank1HP",
      "params": [],
      "leftModuleId": 133,
      "rightModuleId": 135,
      "style": 0.0,
      "pos": [
        43,
        5
      ]
    },
    {
      "id": 135,
      "plugin": "ModularFungi",
      "version": "1.0.0",
      "model": "Blank1HP",
      "params": [],
      "leftModuleId": 134,
      "rightModuleId": 112,
      "style": 0.0,
      "pos": [
        44,
        5
      ]
    },
    {
      "id": 136,
      "plugin": "ModularFungi",
      "version": "1.0.0",
      "model": "Blank1HP",
      "params": [],
      "leftModuleId": 112,
      "rightModuleId": 137,
      "style": 0.0,
      "pos": [
        55,
        5
      ]
    },
    {
      "id": 137,
      "plugin": "ModularFungi",
      "version": "1.0.0",
      "model": "Blank1HP",
      "params": [],
      "leftModuleId": 136,
      "rightModuleId": 161,
      "style": 0.0,
      "pos": [
        56,
        5
      ]
    },
    {
      "id": 139,
      "plugin": "ModularFungi",
      "version": "1.0.0",
      "model": "Blank1HP",
      "params": [],
      "leftModuleId": 121,
      "rightModuleId": 140,
      "style": 0.0,
      "pos": [
        82,
        3
      ]
    },
    {
      "id": 140,
      "plugin": "ModularFungi",
      "version": "1.0.0",
      "model": "Blank12HP",
      "params": [],
      "leftModuleId": 139,
      "rightModuleId": 141,
      "style": 0.0,
      "pos": [
        83,
        3
      ]
    },
    {
      "id": 141,
      "plugin": "ModularFungi",
      "version": "1.0.0",
      "model": "Blank1HP",
      "params": [],
      "leftModuleId": 140,
      "rightModuleId": 63,
      "style": 0.0,
      "pos": [
        95,
        3
      ]
    },
    {
      "id": 142,
      "plugin": "ModularFungi",
      "version": "1.0.0",
      "model": "Blank1HP",
      "params": [],
      "leftModuleId": 144,
      "rightModuleId": 100,
      "style": 0.0,
      "pos": [
        16,
        4
      ]
    },
    {
      "id": 143,
      "plugin": "ModularFungi",
      "version": "1.0.0",
      "model": "Blank1HP",
      "params": [],
      "rightModuleId": 64,
      "style": 0.0,
      "pos": [
        95,
        4
      ]
    },
    {
      "id": 144,
      "plugin": "Core",
      "version": "1.1.6",
      "model": "Notes",
      "params": [],
      "rightModuleId": 142,
      "text": "MIXER ##\n \n ",
      "pos": [
        0,
        4
      ]
    },
    {
      "id": 147,
      "plugin": "ModularFungi",
      "version": "1.0.0",
      "model": "Blank4HP",
      "params": [],
      "rightModuleId": 133,
      "style": 0.0,
      "pos": [
        33,
        5
      ]
    },
    {
      "id": 148,
      "plugin": "ModularFungi",
      "version": "1.0.0",
      "model": "Blank3HP",
      "params": [],
      "rightModuleId": 131,
      "style": 0.0,
      "pos": [
        55,
        6
      ]
    },
    {
      "id": 149,
      "plugin": "Fundamental",
      "version": "1.4.0",
      "model": "VCMixer",
      "params": [
        {
          "id": 0,
          "value": 1.0
        },
        {
          "id": 1,
          "value": 0.758169532
        },
        {
          "id": 2,
          "value": 0.749684274
        },
        {
          "id": 3,
          "value": 0.944845676
        },
        {
          "id": 4,
          "value": 1.0
        }
      ],
      "leftModuleId": 64,
      "pos": [
        106,
        4
      ]
    },
    {
      "id": 161,
      "plugin": "Fundamental",
      "version": "1.4.0",
      "model": "VCMixer",
      "params": [
        {
          "id": 0,
          "value": 1.0
        },
        {
          "id": 1,
          "value": 1.0
        },
        {
          "id": 2,
          "value": 1.0
        },
        {
          "id": 3,
          "value": 0.76665467
        },
        {
          "id": 4,
          "value": 0.745441496
        }
      ],
      "leftModuleId": 137,
      "rightModuleId": 170,
      "pos": [
        57,
        5
      ]
    },
    {
      "id": 164,
      "plugin": "Fundamental",
      "version": "1.4.0",
      "model": "VCMixer",
      "params": [
        {
          "id": 0,
          "value": 1.62765217
        },
        {
          "id": 1,
          "value": 1.11853313
        },
        {
          "id": 2,
          "value": 0.885955215
        },
        {
          "id": 3,
          "value": 1.31162202
        },
        {
          "id": 4,
          "value": 0.158321261
        }
      ],
      "leftModuleId": 109,
      "pos": [
        83,
        4
      ]
    },
    {
      "id": 167,
      "plugin": "Valley",
      "version": "1.0.1",
      "model": "Plateau",
      "params": [
        {
          "id": 0,
          "value": 0.526703298
        },
        {
          "id": 1,
          "value": 0.563462317
        },
        {
          "id": 2,
          "value": 0.266647011
        },
        {
          "id": 3,
          "value": 9.94930649
        },
        {
          "id": 4,
          "value": 3.98826289
        },
        {
          "id": 5,
          "value": 0.327328593
        },
        {
          "id": 6,
          "value": 6.75177193
        },
        {
          "id": 7,
          "value": 0.690141261
        },
        {
          "id": 8,
          "value": 8.56148052
        },
        {
          "id": 9,
          "value": 8.40816212
        },
        {
          "id": 10,
          "value": 0.475974798
        },
        {
          "id": 11,
          "value": 0.210742354
        },
        {
          "id": 12,
          "value": 13.3977966
        },
        {
          "id": 13,
          "value": 0.0
        },
        {
          "id": 14,
          "value": 0.0
        },
        {
          "id": 15,
          "value": 0.0
        },
        {
          "id": 16,
          "value": 0.0
        },
        {
          "id": 17,
          "value": 0.365999937
        },
        {
          "id": 18,
          "value": 0.218610525
        },
        {
          "id": 19,
          "value": -0.272101045
        },
        {
          "id": 20,
          "value": 0.447780788
        },
        {
          "id": 21,
          "value": 0.156927347
        },
        {
          "id": 22,
          "value": 0.854369998
        },
        {
          "id": 23,
          "value": -0.748582959
        },
        {
          "id": 24,
          "value": 0.319425464
        },
        {
          "id": 25,
          "value": 0.823669434
        },
        {
          "id": 26,
          "value": 0.57411027
        },
        {
          "id": 27,
          "value": -0.814614534
        },
        {
          "id": 28,
          "value": 0.158932328
        },
        {
          "id": 29,
          "value": 1.0
        },
        {
          "id": 30,
          "value": 0.0
        }
      ],
      "leftModuleId": 170,
      "rightModuleId": 180,
      "data": {
        "frozen": false,
        "freezeToggle": false,
        "panelStyle": 0,
        "tuned": 1,
        "diffuseInput": 0,
        "preDelayCVSens": 1,
        "inputSensitivity": 0,
        "outputSaturation": 1
      },
      "pos": [
        73,
        5
      ]
    },
    {
      "id": 170,
      "plugin": "cf",
      "version": "1.1.1",
      "model": "MONO",
      "params": [
        {
          "id": 0,
          "value": -0.153808713
        },
        {
          "id": 1,
          "value": 3.97939396
        },
        {
          "id": 2,
          "value": 0.0
        },
        {
          "id": 3,
          "value": 0.0
        }
      ],
      "leftModuleId": 161,
      "rightModuleId": 167,
      "data": {
        "solostate": 1,
        "onstate": 1
      },
      "pos": [
        67,
        5
      ]
    },
    {
      "id": 180,
      "plugin": "Bogaudio",
      "version": "1.1.26",
      "model": "Bogaudio-FMOp",
      "params": [
        {
          "id": 0,
          "value": -0.166563451
        },
        {
          "id": 1,
          "value": -0.305193901
        },
        {
          "id": 2,
          "value": 0.225983024
        },
        {
          "id": 3,
          "value": 0.102917671
        },
        {
          "id": 4,
          "value": 0.563071132
        },
        {
          "id": 5,
          "value": 0.429136276
        },
        {
          "id": 6,
          "value": 0.437164247
        },
        {
          "id": 7,
          "value": 0.740006149
        },
        {
          "id": 8,
          "value": 0.970198572
        },
        {
          "id": 9,
          "value": 1.0
        },
        {
          "id": 10,
          "value": 1.0
        },
        {
          "id": 11,
          "value": 0.0
        }
      ],
      "leftModuleId": 167,
      "data": {
        "linearLevel": false
      },
      "pos": [
        85,
        5
      ]
    },
    {
      "id": 181,
      "plugin": "Fundamental",
      "version": "1.4.0",
      "model": "VCO",
      "params": [
        {
          "id": 0,
          "value": 0.0
        },
        {
          "id": 1,
          "value": 0.0
        },
        {
          "id": 2,
          "value": 16.9548397
        },
        {
          "id": 3,
          "value": 0.126630545
        },
        {
          "id": 4,
          "value": 0.936160147
        },
        {
          "id": 5,
          "value": 0.684547484
        },
        {
          "id": 6,
          "value": 0.610602796
        }
      ],
      "pos": [
        85,
        6
      ]
    }
  ],
  "cables": [
    {
      "id": 403,
      "outputModuleId": 44,
      "outputId": 0,
      "inputModuleId": 43,
      "inputId": 4,
      "color": "#0c8e15"
    },
    {
      "id": 417,
      "outputModuleId": 46,
      "outputId": 3,
      "inputModuleId": 43,
      "inputId": 0,
      "color": "#0c8e15"
    },
    {
      "id": 437,
      "outputModuleId": 48,
      "outputId": 0,
      "inputModuleId": 46,
      "inputId": 1,
      "color": "#0986ad"
    },
    {
      "id": 434,
      "outputModuleId": 46,
      "outputId": 1,
      "inputModuleId": 44,
      "inputId": 1,
      "color": "#0c8e15"
    },
    {
      "id": 438,
      "outputModuleId": 46,
      "outputId": 0,
      "inputModuleId": 46,
      "inputId": 3,
      "color": "#0c8e15"
    },
    {
      "id": 439,
      "outputModuleId": 46,
      "outputId": 0,
      "inputModuleId": 44,
      "inputId": 2,
      "color": "#c91847"
    },
    {
      "id": 440,
      "outputModuleId": 46,
      "outputId": 0,
      "inputModuleId": 44,
      "inputId": 0,
      "color": "#0986ad"
    },
    {
      "id": 442,
      "outputModuleId": 48,
      "outputId": 1,
      "inputModuleId": 27,
      "inputId": 0,
      "color": "#c91847"
    },
    {
      "id": 410,
      "outputModuleId": 43,
      "outputId": 0,
      "inputModuleId": 51,
      "inputId": 0,
      "color": "#0986ad"
    },
    {
      "id": 441,
      "outputModuleId": 44,
      "outputId": 0,
      "inputModuleId": 51,
      "inputId": 1,
      "color": "#c9b70e"
    },
    {
      "id": 443,
      "outputModuleId": 51,
      "outputId": 0,
      "inputModuleId": 32,
      "inputId": 2,
      "color": "#0986ad"
    },
    {
      "id": 444,
      "outputModuleId": 51,
      "outputId": 1,
      "inputModuleId": 32,
      "inputId": 3,
      "color": "#c9b70e"
    },
    {
      "id": 445,
      "outputModuleId": 50,
      "outputId": 1,
      "inputModuleId": 44,
      "inputId": 5,
      "color": "#c9b70e"
    },
    {
      "id": 475,
      "outputModuleId": 57,
      "outputId": 1,
      "inputModuleId": 60,
      "inputId": 0,
      "color": "#0986ad"
    },
    {
      "id": 485,
      "outputModuleId": 57,
      "outputId": 0,
      "inputModuleId": 60,
      "inputId": 1,
      "color": "#0986ad"
    },
    {
      "id": 494,
      "outputModuleId": 61,
      "outputId": 0,
      "inputModuleId": 54,
      "inputId": 1,
      "color": "#0c8e15"
    },
    {
      "id": 487,
      "outputModuleId": 60,
      "outputId": 0,
      "inputModuleId": 58,
      "inputId": 3,
      "color": "#0c8e15"
    },
    {
      "id": 488,
      "outputModuleId": 60,
      "outputId": 1,
      "inputModuleId": 58,
      "inputId": 4,
      "color": "#c91847"
    },
    {
      "id": 537,
      "outputModuleId": 50,
      "outputId": 2,
      "inputModuleId": 53,
      "inputId": 1,
      "color": "#c91847"
    },
    {
      "id": 549,
      "outputModuleId": 54,
      "outputId": 0,
      "inputModuleId": 43,
      "inputId": 3,
      "color": "#c91847"
    },
    {
      "id": 461,
      "outputModuleId": 53,
      "outputId": 0,
      "inputModuleId": 92,
      "inputId": 0,
      "color": "#0986ad"
    },
    {
      "id": 460,
      "outputModuleId": 53,
      "outputId": 1,
      "inputModuleId": 92,
      "inputId": 1,
      "color": "#c91847"
    },
    {
      "id": 550,
      "outputModuleId": 92,
      "outputId": 0,
      "inputModuleId": 2,
      "inputId": 3,
      "color": "#0c8e15"
    },
    {
      "id": 554,
      "outputModuleId": 58,
      "outputId": 0,
      "inputModuleId": 88,
      "inputId": 1,
      "color": "#c91847"
    },
    {
      "id": 555,
      "outputModuleId": 58,
      "outputId": 0,
      "inputModuleId": 88,
      "inputId": 2,
      "color": "#0986ad"
    },
    {
      "id": 569,
      "outputModuleId": 92,
      "outputId": 1,
      "inputModuleId": 2,
      "inputId": 4,
      "color": "#c9b70e"
    },
    {
      "id": 567,
      "outputModuleId": 54,
      "outputId": 4,
      "inputModuleId": 92,
      "inputId": 5,
      "color": "#c91847"
    },
    {
      "id": 559,
      "outputModuleId": 54,
      "outputId": 5,
      "inputModuleId": 92,
      "inputId": 11,
      "color": "#0986ad"
    },
    {
      "id": 575,
      "outputModuleId": 57,
      "outputId": 0,
      "inputModuleId": 89,
      "inputId": 1,
      "color": "#c91847"
    },
    {
      "id": 576,
      "outputModuleId": 57,
      "outputId": 1,
      "inputModuleId": 89,
      "inputId": 2,
      "color": "#0986ad"
    },
    {
      "id": 557,
      "outputModuleId": 88,
      "outputId": 0,
      "inputModuleId": 89,
      "inputId": 3,
      "color": "#0c8e15"
    },
    {
      "id": 556,
      "outputModuleId": 88,
      "outputId": 0,
      "inputModuleId": 89,
      "inputId": 4,
      "color": "#c9b70e"
    },
    {
      "id": 577,
      "outputModuleId": 89,
      "outputId": 0,
      "inputModuleId": 1,
      "inputId": 0,
      "color": "#c91847"
    },
    {
      "id": 578,
      "outputModuleId": 89,
      "outputId": 0,
      "inputModuleId": 1,
      "inputId": 1,
      "color": "#0986ad"
    },
    {
      "id": 579,
      "outputModuleId": 89,
      "outputId": 0,
      "inputModuleId": 62,
      "inputId": 0,
      "color": "#c9b70e"
    },
    {
      "id": 580,
      "outputModuleId": 89,
      "outputId": 0,
      "inputModuleId": 62,
      "inputId": 1,
      "color": "#0c8e15"
    },
    {
      "id": 604,
      "outputModuleId": 50,
      "outputId": 0,
      "inputModuleId": 54,
      "inputId": 2,
      "color": "#c9b70e"
    },
    {
      "id": 606,
      "outputModuleId": 96,
      "outputId": 6,
      "inputModuleId": 53,
      "inputId": 5,
      "color": "#c91847"
    },
    {
      "id": 607,
      "outputModuleId": 96,
      "outputId": 9,
      "inputModuleId": 53,
      "inputId": 0,
      "color": "#0986ad"
    },
    {
      "id": 608,
      "outputModuleId": 96,
      "outputId": 3,
      "inputModuleId": 53,
      "inputId": 2,
      "color": "#c9b70e"
    },
    {
      "id": 609,
      "outputModuleId": 48,
      "outputId": 6,
      "inputModuleId": 96,
      "inputId": 1,
      "color": "#c91847"
    },
    {
      "id": 611,
      "outputModuleId": 57,
      "outputId": 0,
      "inputModuleId": 2,
      "inputId": 2,
      "color": "#0986ad"
    },
    {
      "id": 621,
      "outputModuleId": 103,
      "outputId": 0,
      "inputModuleId": 100,
      "inputId": 3,
      "color": "#c91847"
    },
    {
      "id": 622,
      "outputModuleId": 103,
      "outputId": 1,
      "inputModuleId": 100,
      "inputId": 4,
      "color": "#0986ad"
    },
    {
      "id": 619,
      "outputModuleId": 100,
      "outputId": 0,
      "inputModuleId": 104,
      "inputId": 8,
      "color": "#c9b70e"
    },
    {
      "id": 639,
      "outputModuleId": 87,
      "outputId": 0,
      "inputModuleId": 108,
      "inputId": 8,
      "color": "#c91847"
    },
    {
      "id": 418,
      "outputModuleId": 46,
      "outputId": 2,
      "inputModuleId": 43,
      "inputId": 2,
      "color": "#c91847"
    },
    {
      "id": 680,
      "outputModuleId": 85,
      "outputId": 0,
      "inputModuleId": 87,
      "inputId": 1,
      "color": "#c9b70e"
    },
    {
      "id": 586,
      "outputModuleId": 85,
      "outputId": 1,
      "inputModuleId": 87,
      "inputId": 2,
      "color": "#0c8e15"
    },
    {
      "id": 711,
      "outputModuleId": 104,
      "outputId": 3,
      "inputModuleId": 97,
      "inputId": 2,
      "color": "#c91847"
    },
    {
      "id": 624,
      "outputModuleId": 104,
      "outputId": 3,
      "inputModuleId": 97,
      "inputId": 1,
      "color": "#0c8e15"
    },
    {
      "id": 642,
      "outputModuleId": 97,
      "outputId": 0,
      "inputModuleId": 133,
      "inputId": 8,
      "color": "#c91847"
    },
    {
      "id": 648,
      "outputModuleId": 97,
      "outputId": 0,
      "inputModuleId": 133,
      "inputId": 9,
      "color": "#0c8e15"
    },
    {
      "id": 730,
      "outputModuleId": 133,
      "outputId": 3,
      "inputModuleId": 112,
      "inputId": 1,
      "color": "#0986ad"
    },
    {
      "id": 731,
      "outputModuleId": 133,
      "outputId": 4,
      "inputModuleId": 112,
      "inputId": 2,
      "color": "#c9b70e"
    },
    {
      "id": 744,
      "outputModuleId": 63,
      "outputId": 0,
      "inputModuleId": 64,
      "inputId": 1,
      "color": "#c9b70e"
    },
    {
      "id": 745,
      "outputModuleId": 63,
      "outputId": 1,
      "inputModuleId": 64,
      "inputId": 2,
      "color": "#0c8e15"
    },
    {
      "id": 751,
      "outputModuleId": 149,
      "outputId": 0,
      "inputModuleId": 131,
      "inputId": 1,
      "color": "#0c8e15"
    },
    {
      "id": 752,
      "outputModuleId": 149,
      "outputId": 0,
      "inputModuleId": 131,
      "inputId": 2,
      "color": "#c91847"
    },
    {
      "id": 714,
      "outputModuleId": 112,
      "outputId": 0,
      "inputModuleId": 131,
      "inputId": 3,
      "color": "#c9b70e"
    },
    {
      "id": 715,
      "outputModuleId": 112,
      "outputId": 0,
      "inputModuleId": 131,
      "inputId": 4,
      "color": "#0c8e15"
    },
    {
      "id": 753,
      "outputModuleId": 131,
      "outputId": 0,
      "inputModuleId": 58,
      "inputId": 1,
      "color": "#0986ad"
    },
    {
      "id": 754,
      "outputModuleId": 131,
      "outputId": 0,
      "inputModuleId": 58,
      "inputId": 2,
      "color": "#c9b70e"
    },
    {
      "id": 506,
      "outputModuleId": 65,
      "outputId": 0,
      "inputModuleId": 149,
      "inputId": 1,
      "color": "#0c8e15"
    },
    {
      "id": 503,
      "outputModuleId": 65,
      "outputId": 1,
      "inputModuleId": 149,
      "inputId": 2,
      "color": "#c91847"
    },
    {
      "id": 685,
      "outputModuleId": 108,
      "outputId": 3,
      "inputModuleId": 109,
      "inputId": 1,
      "color": "#c91847"
    },
    {
      "id": 686,
      "outputModuleId": 108,
      "outputId": 3,
      "inputModuleId": 109,
      "inputId": 2,
      "color": "#0986ad"
    },
    {
      "id": 801,
      "outputModuleId": 109,
      "outputId": 0,
      "inputModuleId": 164,
      "inputId": 1,
      "color": "#0986ad"
    },
    {
      "id": 802,
      "outputModuleId": 109,
      "outputId": 0,
      "inputModuleId": 164,
      "inputId": 2,
      "color": "#0c8e15"
    },
    {
      "id": 803,
      "outputModuleId": 164,
      "outputId": 0,
      "inputModuleId": 167,
      "inputId": 0,
      "color": "#c91847"
    },
    {
      "id": 829,
      "outputModuleId": 164,
      "outputId": 0,
      "inputModuleId": 167,
      "inputId": 1,
      "color": "#0986ad"
    },
    {
      "id": 830,
      "outputModuleId": 167,
      "outputId": 0,
      "inputModuleId": 161,
      "inputId": 1,
      "color": "#c9b70e"
    },
    {
      "id": 831,
      "outputModuleId": 167,
      "outputId": 1,
      "inputModuleId": 161,
      "inputId": 2,
      "color": "#0c8e15"
    },
    {
      "id": 863,
      "outputModuleId": 161,
      "outputId": 0,
      "inputModuleId": 112,
      "inputId": 3,
      "color": "#c9b70e"
    },
    {
      "id": 864,
      "outputModuleId": 161,
      "outputId": 0,
      "inputModuleId": 112,
      "inputId": 4,
      "color": "#0c8e15"
    },
    {
      "id": 882,
      "outputModuleId": 161,
      "outputId": 0,
      "inputModuleId": 170,
      "inputId": 8,
      "color": "#c9b70e"
    },
    {
      "id": 883,
      "outputModuleId": 170,
      "outputId": 3,
      "inputModuleId": 180,
      "inputId": 3,
      "color": "#0c8e15"
    },
    {
      "id": 885,
      "outputModuleId": 170,
      "outputId": 3,
      "inputModuleId": 180,
      "inputId": 0,
      "color": "#0986ad"
    },
    {
      "id": 886,
      "outputModuleId": 170,
      "outputId": 3,
      "inputModuleId": 181,
      "inputId": 0,
      "color": "#c91847"
    },
    {
      "id": 887,
      "outputModuleId": 181,
      "outputId": 0,
      "inputModuleId": 180,
      "inputId": 1,
      "color": "#0986ad"
    },
    {
      "id": 888,
      "outputModuleId": 170,
      "outputId": 3,
      "inputModuleId": 181,
      "inputId": 1,
      "color": "#c9b70e"
    },
    {
      "id": 889,
      "outputModuleId": 181,
      "outputId": 1,
      "inputModuleId": 167,
      "inputId": 5,
      "color": "#0c8e15"
    },
    {
      "id": 884,
      "outputModuleId": 180,
      "outputId": 0,
      "inputModuleId": 167,
      "inputId": 2,
      "color": "#c91847"
    },
    {
      "id": 894,
      "outputModuleId": 64,
      "outputId": 0,
      "inputModuleId": 149,
      "inputId": 3,
      "color": "#c9b70e"
    },
    {
      "id": 895,
      "outputModuleId": 64,
      "outputId": 0,
      "inputModuleId": 149,
      "inputId": 4,
      "color": "#0c8e15"
    }
  ]
}