{
  "version": "1.1.6",
  "modules": [
    {
      "id": 1,
      "plugin": "Core",
      "version": "1.1.6",
      "model": "AudioInterface",
      "params": [],
      "leftModuleId": 2,
      "rightModuleId": 22,
      "data": {
        "audio": {
          "driver": 5,
          "deviceName": "Apple Inc.: Built-in Output",
          "offset": 0,
          "maxChannels": 8,
          "sampleRate": 48000,
          "blockSize": 256
        }
      },
      "pos": [
        55,
        0
      ]
    },
    {
      "id": 2,
      "plugin": "Fundamental",
      "version": "1.4.0",
      "model": "VCMixer",
      "params": [
        {
          "id": 0,
          "value": 0.99600023
        },
        {
          "id": 1,
          "value": 1.0479337
        },
        {
          "id": 2,
          "value": 0.964494169
        },
        {
          "id": 3,
          "value": 0.626647174
        },
        {
          "id": 4,
          "value": 0.660588503
        }
      ],
      "leftModuleId": 7,
      "rightModuleId": 1,
      "pos": [
        45,
        0
      ]
    },
    {
      "id": 7,
      "plugin": "Fundamental",
      "version": "1.4.0",
      "model": "Scope",
      "params": [
        {
          "id": 0,
          "value": 0.0
        },
        {
          "id": 1,
          "value": 0.0
        },
        {
          "id": 2,
          "value": 0.0
        },
        {
          "id": 3,
          "value": -3.45000172
        },
        {
          "id": 4,
          "value": 13.6249952
        },
        {
          "id": 5,
          "value": 0.0
        },
        {
          "id": 6,
          "value": 0.0
        },
        {
          "id": 7,
          "value": 0.0
        }
      ],
      "leftModuleId": 48,
      "rightModuleId": 2,
      "data": {
        "lissajous": 0,
        "external": 0
      },
      "pos": [
        32,
        0
      ]
    },
    {
      "id": 22,
      "plugin": "VCV-Recorder",
      "version": "1.0.1",
      "model": "Recorder",
      "params": [
        {
          "id": 0,
          "value": 0.996000111
        },
        {
          "id": 1,
          "value": 0.0
        }
      ],
      "leftModuleId": 1,
      "data": {
        "format": "wav",
        "path": "/Users/lorenasalome/Documents/DigMediaYorkU/VSL/gitShow1/patchFinal.wav",
        "incrementPath": true,
        "sampleRate": 44100,
        "depth": 16,
        "bitRate": 320000
      },
      "pos": [
        65,
        0
      ]
    },
    {
      "id": 27,
      "plugin": "Fundamental",
      "version": "1.4.0",
      "model": "LFO",
      "params": [
        {
          "id": 0,
          "value": 1.0
        },
        {
          "id": 1,
          "value": 0.0
        },
        {
          "id": 2,
          "value": -1.27700806
        },
        {
          "id": 3,
          "value": 0.076500006
        },
        {
          "id": 4,
          "value": 0.0
        },
        {
          "id": 5,
          "value": 0.474519908
        },
        {
          "id": 6,
          "value": 0.478500098
        }
      ],
      "pos": [
        4,
        1
      ]
    },
    {
      "id": 44,
      "plugin": "Fundamental",
      "version": "1.4.0",
      "model": "Noise",
      "params": [],
      "rightModuleId": 45,
      "pos": [
        0,
        0
      ]
    },
    {
      "id": 45,
      "plugin": "Fundamental",
      "version": "1.4.0",
      "model": "VCO",
      "params": [
        {
          "id": 0,
          "value": 1.0
        },
        {
          "id": 1,
          "value": 1.0
        },
        {
          "id": 2,
          "value": 0.108003199
        },
        {
          "id": 3,
          "value": 0.0839997306
        },
        {
          "id": 4,
          "value": 0.379500091
        },
        {
          "id": 5,
          "value": 0.49706015
        },
        {
          "id": 6,
          "value": 0.206999823
        }
      ],
      "leftModuleId": 44,
      "rightModuleId": 46,
      "pos": [
        3,
        0
      ]
    },
    {
      "id": 46,
      "plugin": "cf",
      "version": "1.1.1",
      "model": "BUFFER",
      "params": [
        {
          "id": 0,
          "value": 0.0
        },
        {
          "id": 1,
          "value": 0.702499866
        },
        {
          "id": 2,
          "value": 0.217500016
        }
      ],
      "leftModuleId": 45,
      "rightModuleId": 47,
      "data": {
        "modestate": 1
      },
      "pos": [
        13,
        0
      ]
    },
    {
      "id": 47,
      "plugin": "Fundamental",
      "version": "1.4.0",
      "model": "Random",
      "params": [
        {
          "id": 0,
          "value": 8.71352291
        },
        {
          "id": 1,
          "value": 0.5
        },
        {
          "id": 2,
          "value": 1.0
        },
        {
          "id": 3,
          "value": 1.0
        }
      ],
      "leftModuleId": 46,
      "rightModuleId": 48,
      "pos": [
        21,
        0
      ]
    },
    {
      "id": 48,
      "plugin": "Fundamental",
      "version": "1.4.0",
      "model": "Unity",
      "params": [
        {
          "id": 0,
          "value": 0.0
        },
        {
          "id": 1,
          "value": 0.0
        }
      ],
      "leftModuleId": 47,
      "rightModuleId": 7,
      "data": {
        "merge": false
      },
      "pos": [
        26,
        0
      ]
    },
    {
      "id": 49,
      "plugin": "cf",
      "version": "1.1.1",
      "model": "PLAYER",
      "params": [
        {
          "id": 0,
          "value": 3.43000174
        },
        {
          "id": 1,
          "value": -0.0899994373
        },
        {
          "id": 2,
          "value": -0.453999877
        },
        {
          "id": 3,
          "value": 0.0450000465
        },
        {
          "id": 4,
          "value": 0.0
        },
        {
          "id": 5,
          "value": 0.0
        },
        {
          "id": 6,
          "value": 0.0
        }
      ],
      "data": {
        "lastPath": "/Users/lorenasalome/Documents/DigMediaYorkU/VSL/gitShow1/extensions/elPamperoSample.wav",
        "oscstate": 0
      },
      "pos": [
        57,
        1
      ]
    },
    {
      "id": 53,
      "plugin": "Fundamental",
      "version": "1.4.0",
      "model": "VCMixer",
      "params": [
        {
          "id": 0,
          "value": 1.0
        },
        {
          "id": 1,
          "value": 1.0
        },
        {
          "id": 2,
          "value": 1.0
        },
        {
          "id": 3,
          "value": 1.0
        },
        {
          "id": 4,
          "value": 1.0
        }
      ],
      "pos": [
        38,
        1
      ]
    },
    {
      "id": 57,
      "plugin": "Befaco",
      "version": "1.0.0",
      "model": "SpringReverb",
      "params": [
        {
          "id": 0,
          "value": 0.527999997
        },
        {
          "id": 1,
          "value": 0.521999717
        },
        {
          "id": 2,
          "value": 0.45599997
        },
        {
          "id": 3,
          "value": 0.5
        }
      ],
      "pos": [
        16,
        1
      ]
    },
    {
      "id": 59,
      "plugin": "Befaco",
      "version": "1.0.0",
      "model": "SlewLimiter",
      "params": [
        {
          "id": 0,
          "value": 0.189000085
        },
        {
          "id": 1,
          "value": 0.785999894
        },
        {
          "id": 2,
          "value": 0.0
        }
      ],
      "pos": [
        25,
        1
      ]
    }
  ],
  "cables": [
    {
      "id": 381,
      "outputModuleId": 2,
      "outputId": 0,
      "inputModuleId": 1,
      "inputId": 1,
      "color": "#0c8e15"
    },
    {
      "id": 392,
      "outputModuleId": 2,
      "outputId": 0,
      "inputModuleId": 7,
      "inputId": 0,
      "color": "#0c8e15"
    },
    {
      "id": 453,
      "outputModuleId": 45,
      "outputId": 0,
      "inputModuleId": 48,
      "inputId": 0,
      "color": "#0c8e15"
    },
    {
      "id": 454,
      "outputModuleId": 45,
      "outputId": 1,
      "inputModuleId": 46,
      "inputId": 1,
      "color": "#c91847"
    },
    {
      "id": 452,
      "outputModuleId": 44,
      "outputId": 0,
      "inputModuleId": 45,
      "inputId": 0,
      "color": "#c9b70e"
    },
    {
      "id": 458,
      "outputModuleId": 47,
      "outputId": 2,
      "inputModuleId": 48,
      "inputId": 2,
      "color": "#c91847"
    },
    {
      "id": 451,
      "outputModuleId": 2,
      "outputId": 0,
      "inputModuleId": 1,
      "inputId": 0,
      "color": "#c9b70e"
    },
    {
      "id": 344,
      "outputModuleId": 2,
      "outputId": 0,
      "inputModuleId": 22,
      "inputId": 3,
      "color": "#0986ad"
    },
    {
      "id": 343,
      "outputModuleId": 2,
      "outputId": 0,
      "inputModuleId": 22,
      "inputId": 2,
      "color": "#c91847"
    },
    {
      "id": 478,
      "outputModuleId": 46,
      "outputId": 0,
      "inputModuleId": 49,
      "inputId": 6,
      "color": "#0986ad"
    },
    {
      "id": 482,
      "outputModuleId": 49,
      "outputId": 0,
      "inputModuleId": 2,
      "inputId": 1,
      "color": "#c91847"
    },
    {
      "id": 483,
      "outputModuleId": 49,
      "outputId": 1,
      "inputModuleId": 2,
      "inputId": 2,
      "color": "#0986ad"
    },
    {
      "id": 484,
      "outputModuleId": 48,
      "outputId": 0,
      "inputModuleId": 49,
      "inputId": 0,
      "color": "#c9b70e"
    },
    {
      "id": 479,
      "outputModuleId": 45,
      "outputId": 3,
      "inputModuleId": 49,
      "inputId": 2,
      "color": "#c9b70e"
    },
    {
      "id": 456,
      "outputModuleId": 45,
      "outputId": 2,
      "inputModuleId": 47,
      "inputId": 0,
      "color": "#c9b70e"
    },
    {
      "id": 487,
      "outputModuleId": 27,
      "outputId": 3,
      "inputModuleId": 49,
      "inputId": 5,
      "color": "#0c8e15"
    },
    {
      "id": 457,
      "outputModuleId": 44,
      "outputId": 0,
      "inputModuleId": 45,
      "inputId": 2,
      "color": "#0c8e15"
    },
    {
      "id": 496,
      "outputModuleId": 45,
      "outputId": 2,
      "inputModuleId": 59,
      "inputId": 2,
      "color": "#0986ad"
    },
    {
      "id": 503,
      "outputModuleId": 59,
      "outputId": 0,
      "inputModuleId": 57,
      "inputId": 2,
      "color": "#c91847"
    },
    {
      "id": 504,
      "outputModuleId": 49,
      "outputId": 1,
      "inputModuleId": 57,
      "inputId": 3,
      "color": "#0986ad"
    },
    {
      "id": 497,
      "outputModuleId": 57,
      "outputId": 0,
      "inputModuleId": 2,
      "inputId": 3,
      "color": "#c9b70e"
    }
  ]
}