{
  "version": "1.1.6",
  "modules": [
    {
      "id": 1,
      "plugin": "Core",
      "version": "1.1.6",
      "model": "AudioInterface",
      "params": [],
      "leftModuleId": 2,
      "data": {
        "audio": {
          "driver": 5,
          "deviceName": "4c: ",
          "offset": 0,
          "maxChannels": 8,
          "sampleRate": 48000,
          "blockSize": 256
        }
      },
      "pos": [
        58,
        0
      ]
    },
    {
      "id": 2,
      "plugin": "Fundamental",
      "version": "1.4.0",
      "model": "VCMixer",
      "params": [
        {
          "id": 0,
          "value": 0.978000164
        },
        {
          "id": 1,
          "value": 1.0
        },
        {
          "id": 2,
          "value": 1.0
        },
        {
          "id": 3,
          "value": 0.45694229
        },
        {
          "id": 4,
          "value": 0.482398033
        }
      ],
      "leftModuleId": 7,
      "rightModuleId": 1,
      "pos": [
        48,
        0
      ]
    },
    {
      "id": 3,
      "plugin": "Fundamental",
      "version": "1.4.0",
      "model": "VCO",
      "params": [
        {
          "id": 0,
          "value": 1.0
        },
        {
          "id": 1,
          "value": 1.0
        },
        {
          "id": 2,
          "value": 4.80597639
        },
        {
          "id": 3,
          "value": 0.156000003
        },
        {
          "id": 4,
          "value": 0.534000218
        },
        {
          "id": 5,
          "value": 0.925810337
        },
        {
          "id": 6,
          "value": 0.470999986
        }
      ],
      "leftModuleId": 66,
      "pos": [
        3,
        0
      ]
    },
    {
      "id": 7,
      "plugin": "Fundamental",
      "version": "1.4.0",
      "model": "Scope",
      "params": [
        {
          "id": 0,
          "value": 0.0
        },
        {
          "id": 1,
          "value": 0.0
        },
        {
          "id": 2,
          "value": 0.0
        },
        {
          "id": 3,
          "value": 0.0
        },
        {
          "id": 4,
          "value": 14.0
        },
        {
          "id": 5,
          "value": 0.0
        },
        {
          "id": 6,
          "value": 0.0
        },
        {
          "id": 7,
          "value": 0.0
        }
      ],
      "rightModuleId": 2,
      "data": {
        "lissajous": 0,
        "external": 0
      },
      "pos": [
        35,
        0
      ]
    },
    {
      "id": 8,
      "plugin": "Core",
      "version": "1.1.6",
      "model": "Notes",
      "params": [],
      "text": "Demo patch instructions:\n\n1. Choose an audio driver and device in the AUDIO-8 module.\n\n2. Use the QWERTY and ZXCVB rows of your keyboard to generate MIDI notes, which are converted to 1V/oct and GATE signals.\n\n3. Drag knobs up/down. Hold Ctrl (Cmd on Mac) while dragging to fine-tune. Right-click knobs to edit, or double-click to initialize.\n\n4. Drag ports to create and move cables. Stack multiple cables on outputs by holding Ctrl (Cmd on Mac) and dragging from an output.\n\n5. Right-click on an empty rack space to add new modules.",
      "pos": [
        52,
        1
      ]
    },
    {
      "id": 50,
      "plugin": "Fundamental",
      "version": "1.4.0",
      "model": "Random",
      "params": [
        {
          "id": 0,
          "value": 9.45098686
        },
        {
          "id": 1,
          "value": 0.475250691
        },
        {
          "id": 2,
          "value": 1.0
        },
        {
          "id": 3,
          "value": 1.0
        }
      ],
      "leftModuleId": 65,
      "pos": [
        22,
        0
      ]
    },
    {
      "id": 52,
      "plugin": "Fundamental",
      "version": "1.4.0",
      "model": "Unity",
      "params": [
        {
          "id": 0,
          "value": 0.0
        },
        {
          "id": 1,
          "value": 0.0
        }
      ],
      "data": {
        "merge": false
      },
      "pos": [
        28,
        0
      ]
    },
    {
      "id": 53,
      "plugin": "VCV-Recorder",
      "version": "1.0.1",
      "model": "Recorder",
      "params": [
        {
          "id": 0,
          "value": 1.0
        },
        {
          "id": 1,
          "value": 0.0
        }
      ],
      "data": {
        "format": "wav",
        "path": "/Users/lorenasalome/Documents/DigMediaYorkU/VSL/week2/ExperimentingWRack/recording.wav",
        "incrementPath": true,
        "sampleRate": 44100,
        "depth": 16,
        "bitRate": 320000
      },
      "pos": [
        89,
        0
      ]
    },
    {
      "id": 54,
      "plugin": "cf",
      "version": "1.1.1",
      "model": "PLAYER",
      "params": [
        {
          "id": 0,
          "value": 1.94500971
        },
        {
          "id": 1,
          "value": -0.014995873
        },
        {
          "id": 2,
          "value": -0.255999744
        },
        {
          "id": 3,
          "value": 0.0380002409
        },
        {
          "id": 4,
          "value": 0.0
        },
        {
          "id": 5,
          "value": 0.0
        },
        {
          "id": 6,
          "value": 0.0
        }
      ],
      "data": {
        "lastPath": "/Users/lorenasalome/Documents/DigMediaYorkU/VSL/week2/ExperimentingWRack/el pamperoII_mixdown.wav",
        "oscstate": 1
      },
      "pos": [
        72,
        1
      ]
    },
    {
      "id": 65,
      "plugin": "cf",
      "version": "1.1.1",
      "model": "BUFFER",
      "params": [
        {
          "id": 0,
          "value": 0.0
        },
        {
          "id": 1,
          "value": 0.357999176
        },
        {
          "id": 2,
          "value": 0.20550023
        }
      ],
      "rightModuleId": 50,
      "data": {
        "modestate": 1
      },
      "pos": [
        14,
        0
      ]
    },
    {
      "id": 66,
      "plugin": "Fundamental",
      "version": "1.4.0",
      "model": "Noise",
      "params": [],
      "rightModuleId": 3,
      "pos": [
        0,
        0
      ]
    },
    {
      "id": 71,
      "plugin": "NYSTHI",
      "version": "1.0.9",
      "model": "MVerb",
      "params": [
        {
          "id": 0,
          "value": 0.657999873
        },
        {
          "id": 1,
          "value": 0.636999905
        },
        {
          "id": 2,
          "value": 0.673999786
        },
        {
          "id": 3,
          "value": 0.45450002
        },
        {
          "id": 4,
          "value": 0.899000227
        },
        {
          "id": 5,
          "value": 0.318499953
        },
        {
          "id": 6,
          "value": 0.818999887
        },
        {
          "id": 7,
          "value": 0.522500455
        },
        {
          "id": 8,
          "value": 0.5
        },
        {
          "id": 9,
          "value": 0.0
        }
      ],
      "pos": [
        21,
        1
      ]
    },
    {
      "id": 72,
      "plugin": "Fundamental",
      "version": "1.4.0",
      "model": "LFO",
      "params": [
        {
          "id": 0,
          "value": 1.0
        },
        {
          "id": 1,
          "value": 1.0
        },
        {
          "id": 2,
          "value": -2.11399937
        },
        {
          "id": 3,
          "value": 0.00600011833
        },
        {
          "id": 4,
          "value": 0.0
        },
        {
          "id": 5,
          "value": 0.5
        },
        {
          "id": 6,
          "value": 0.464999974
        }
      ],
      "pos": [
        4,
        1
      ]
    }
  ],
  "cables": [
    {
      "id": 446,
      "outputModuleId": 2,
      "outputId": 0,
      "inputModuleId": 1,
      "inputId": 1,
      "color": "#c9b70e"
    },
    {
      "id": 469,
      "outputModuleId": 54,
      "outputId": 1,
      "inputModuleId": 2,
      "inputId": 2,
      "color": "#c91847"
    },
    {
      "id": 461,
      "outputModuleId": 50,
      "outputId": 2,
      "inputModuleId": 52,
      "inputId": 2,
      "color": "#c9b70e"
    },
    {
      "id": 474,
      "outputModuleId": 3,
      "outputId": 0,
      "inputModuleId": 52,
      "inputId": 0,
      "color": "#0986ad"
    },
    {
      "id": 473,
      "outputModuleId": 52,
      "outputId": 0,
      "inputModuleId": 54,
      "inputId": 0,
      "color": "#c91847"
    },
    {
      "id": 636,
      "outputModuleId": 3,
      "outputId": 2,
      "inputModuleId": 50,
      "inputId": 0,
      "color": "#0c8e15"
    },
    {
      "id": 445,
      "outputModuleId": 2,
      "outputId": 0,
      "inputModuleId": 1,
      "inputId": 0,
      "color": "#0986ad"
    },
    {
      "id": 641,
      "outputModuleId": 2,
      "outputId": 0,
      "inputModuleId": 53,
      "inputId": 2,
      "color": "#0986ad"
    },
    {
      "id": 642,
      "outputModuleId": 2,
      "outputId": 0,
      "inputModuleId": 53,
      "inputId": 3,
      "color": "#c9b70e"
    },
    {
      "id": 652,
      "outputModuleId": 3,
      "outputId": 1,
      "inputModuleId": 65,
      "inputId": 1,
      "color": "#0c8e15"
    },
    {
      "id": 653,
      "outputModuleId": 65,
      "outputId": 0,
      "inputModuleId": 54,
      "inputId": 6,
      "color": "#c91847"
    },
    {
      "id": 657,
      "outputModuleId": 66,
      "outputId": 0,
      "inputModuleId": 3,
      "inputId": 2,
      "color": "#0986ad"
    },
    {
      "id": 658,
      "outputModuleId": 66,
      "outputId": 0,
      "inputModuleId": 3,
      "inputId": 0,
      "color": "#c9b70e"
    },
    {
      "id": 680,
      "outputModuleId": 71,
      "outputId": 0,
      "inputModuleId": 2,
      "inputId": 3,
      "color": "#c9b70e"
    },
    {
      "id": 681,
      "outputModuleId": 71,
      "outputId": 1,
      "inputModuleId": 2,
      "inputId": 4,
      "color": "#0c8e15"
    },
    {
      "id": 468,
      "outputModuleId": 54,
      "outputId": 0,
      "inputModuleId": 2,
      "inputId": 1,
      "color": "#0c8e15"
    },
    {
      "id": 635,
      "outputModuleId": 3,
      "outputId": 3,
      "inputModuleId": 54,
      "inputId": 2,
      "color": "#c9b70e"
    },
    {
      "id": 684,
      "outputModuleId": 3,
      "outputId": 3,
      "inputModuleId": 71,
      "inputId": 1,
      "color": "#0c8e15"
    },
    {
      "id": 685,
      "outputModuleId": 3,
      "outputId": 3,
      "inputModuleId": 71,
      "inputId": 0,
      "color": "#c91847"
    },
    {
      "id": 688,
      "outputModuleId": 72,
      "outputId": 3,
      "inputModuleId": 54,
      "inputId": 5,
      "color": "#c9b70e"
    }
  ]
}