{
  "version": "1.1.6",
  "modules": [
    {
      "id": 1,
      "plugin": "Core",
      "version": "1.1.6",
      "model": "AudioInterface",
      "params": [],
      "leftModuleId": 2,
      "data": {
        "audio": {
          "driver": 5,
          "deviceName": "Apple Inc.: Built-in Output",
          "offset": 0,
          "maxChannels": 8,
          "sampleRate": 44100,
          "blockSize": 256
        }
      },
      "pos": [
        54,
        0
      ]
    },
    {
      "id": 2,
      "plugin": "Fundamental",
      "version": "1.4.0",
      "model": "VCMixer",
      "params": [
        {
          "id": 0,
          "value": 0.978000164
        },
        {
          "id": 1,
          "value": 1.0
        },
        {
          "id": 2,
          "value": 1.0
        },
        {
          "id": 3,
          "value": 1.0
        },
        {
          "id": 4,
          "value": 1.0
        }
      ],
      "leftModuleId": 7,
      "rightModuleId": 1,
      "pos": [
        44,
        0
      ]
    },
    {
      "id": 3,
      "plugin": "Fundamental",
      "version": "1.4.0",
      "model": "VCO",
      "params": [
        {
          "id": 0,
          "value": 1.0
        },
        {
          "id": 1,
          "value": 1.0
        },
        {
          "id": 2,
          "value": -36.8279877
        },
        {
          "id": 3,
          "value": -0.443999976
        },
        {
          "id": 4,
          "value": 0.727499962
        },
        {
          "id": 5,
          "value": 0.178070098
        },
        {
          "id": 6,
          "value": 0.75150001
        }
      ],
      "rightModuleId": 4,
      "pos": [
        0,
        0
      ]
    },
    {
      "id": 4,
      "plugin": "Fundamental",
      "version": "1.4.0",
      "model": "VCF",
      "params": [
        {
          "id": 0,
          "value": 0.604498804
        },
        {
          "id": 1,
          "value": 0.5
        },
        {
          "id": 2,
          "value": 0.234000027
        },
        {
          "id": 3,
          "value": 1.0
        },
        {
          "id": 4,
          "value": 0.0
        }
      ],
      "leftModuleId": 3,
      "rightModuleId": 50,
      "pos": [
        10,
        0
      ]
    },
    {
      "id": 7,
      "plugin": "Fundamental",
      "version": "1.4.0",
      "model": "Scope",
      "params": [
        {
          "id": 0,
          "value": 0.0
        },
        {
          "id": 1,
          "value": 0.0
        },
        {
          "id": 2,
          "value": 0.0
        },
        {
          "id": 3,
          "value": 0.0
        },
        {
          "id": 4,
          "value": 14.0
        },
        {
          "id": 5,
          "value": 0.0
        },
        {
          "id": 6,
          "value": 0.0
        },
        {
          "id": 7,
          "value": 0.0
        }
      ],
      "rightModuleId": 2,
      "data": {
        "lissajous": 0,
        "external": 0
      },
      "pos": [
        31,
        0
      ]
    },
    {
      "id": 8,
      "plugin": "Core",
      "version": "1.1.6",
      "model": "Notes",
      "params": [],
      "text": "Demo patch instructions:\n\n1. Choose an audio driver and device in the AUDIO-8 module.\n\n2. Use the QWERTY and ZXCVB rows of your keyboard to generate MIDI notes, which are converted to 1V/oct and GATE signals.\n\n3. Drag knobs up/down. Hold Ctrl (Cmd on Mac) while dragging to fine-tune. Right-click knobs to edit, or double-click to initialize.\n\n4. Drag ports to create and move cables. Stack multiple cables on outputs by holding Ctrl (Cmd on Mac) and dragging from an output.\n\n5. Right-click on an empty rack space to add new modules.",
      "pos": [
        48,
        1
      ]
    },
    {
      "id": 50,
      "plugin": "Fundamental",
      "version": "1.4.0",
      "model": "Random",
      "params": [
        {
          "id": 0,
          "value": 4.10932589
        },
        {
          "id": 1,
          "value": 0.440000296
        },
        {
          "id": 2,
          "value": 1.0
        },
        {
          "id": 3,
          "value": 1.0
        }
      ],
      "leftModuleId": 4,
      "pos": [
        18,
        0
      ]
    },
    {
      "id": 52,
      "plugin": "Fundamental",
      "version": "1.4.0",
      "model": "Unity",
      "params": [
        {
          "id": 0,
          "value": 0.0
        },
        {
          "id": 1,
          "value": 0.0
        }
      ],
      "data": {
        "merge": false
      },
      "pos": [
        24,
        0
      ]
    },
    {
      "id": 53,
      "plugin": "VCV-Recorder",
      "version": "1.0.1",
      "model": "Recorder",
      "params": [
        {
          "id": 0,
          "value": 1.0
        },
        {
          "id": 1,
          "value": 0.0
        }
      ],
      "rightModuleId": 54,
      "data": {
        "format": "wav",
        "path": "/Users/lorenasalome/Documents/DigMediaYorkU/VSL/gitShow1/extensions/expSampleViolin.wav",
        "incrementPath": true,
        "sampleRate": 44100,
        "depth": 16,
        "bitRate": 320000
      },
      "pos": [
        65,
        0
      ]
    },
    {
      "id": 54,
      "plugin": "cf",
      "version": "1.1.1",
      "model": "PLAYER",
      "params": [
        {
          "id": 0,
          "value": 2.20500135
        },
        {
          "id": 1,
          "value": 0.0150017738
        },
        {
          "id": 2,
          "value": 0.549999893
        },
        {
          "id": 3,
          "value": 0.456999987
        },
        {
          "id": 4,
          "value": 0.0
        },
        {
          "id": 5,
          "value": 0.0
        },
        {
          "id": 6,
          "value": 0.0
        }
      ],
      "leftModuleId": 53,
      "data": {
        "lastPath": "/Users/lorenasalome/Documents/DigMediaYorkU/VSL/week2/ExperimentingWRack/el pamperoII_mixdown.wav",
        "oscstate": 0
      },
      "pos": [
        70,
        0
      ]
    }
  ],
  "cables": [
    {
      "id": 446,
      "outputModuleId": 2,
      "outputId": 0,
      "inputModuleId": 1,
      "inputId": 1,
      "color": "#c9b70e"
    },
    {
      "id": 466,
      "outputModuleId": 4,
      "outputId": 0,
      "inputModuleId": 52,
      "inputId": 4,
      "color": "#c91847"
    },
    {
      "id": 465,
      "outputModuleId": 3,
      "outputId": 2,
      "inputModuleId": 50,
      "inputId": 0,
      "color": "#c9b70e"
    },
    {
      "id": 445,
      "outputModuleId": 2,
      "outputId": 0,
      "inputModuleId": 1,
      "inputId": 0,
      "color": "#0986ad"
    },
    {
      "id": 468,
      "outputModuleId": 54,
      "outputId": 0,
      "inputModuleId": 2,
      "inputId": 1,
      "color": "#0c8e15"
    },
    {
      "id": 469,
      "outputModuleId": 54,
      "outputId": 1,
      "inputModuleId": 2,
      "inputId": 2,
      "color": "#c91847"
    },
    {
      "id": 461,
      "outputModuleId": 50,
      "outputId": 2,
      "inputModuleId": 52,
      "inputId": 2,
      "color": "#c9b70e"
    },
    {
      "id": 474,
      "outputModuleId": 3,
      "outputId": 0,
      "inputModuleId": 52,
      "inputId": 0,
      "color": "#0986ad"
    },
    {
      "id": 473,
      "outputModuleId": 52,
      "outputId": 0,
      "inputModuleId": 54,
      "inputId": 0,
      "color": "#c91847"
    },
    {
      "id": 477,
      "outputModuleId": 52,
      "outputId": 1,
      "inputModuleId": 3,
      "inputId": 0,
      "color": "#c9b70e"
    }
  ]
}